<svg xml:space="preserve" viewBox="0 0 101.52000000000001 95.28" y="0px" x="0px" version="1.1" xmlns:xlink="http://www.w3.org/1999/xlink" xmlns="http://www.w3.org/2000/svg" style="max-height: 500px" width="101.52000000000001" height="95.28">
<path fill="white" d="M66.891,47.451c3.255,0,6.203,1.319,8.336,3.453  c2.134,2.134,3.453,5.081,3.453,8.336s-1.319,6.202-3.453,8.336c-2.133,2.133-5.081,3.453-8.336,3.453s-6.202-1.32-8.336-3.453  s-3.453-5.081-3.453-8.336s1.319-6.203,3.453-8.336C60.688,48.771,63.636,47.451,66.891,47.451L66.891,47.451z M75.655,34.573  c-0.304,0.058-0.571,0.269-0.689,0.58c-0.075,0.203-0.076,0.415-0.015,0.606l1.254,4.888c0.125,0.491,0.626,0.788,1.117,0.663  s0.788-0.625,0.663-1.117l-0.809-3.152c3.976,1.845,7.372,4.726,9.843,8.296c2.73,3.945,4.329,8.736,4.329,13.903  c0,6.754-2.737,12.869-7.163,17.294c-4.426,4.426-10.541,7.164-17.295,7.164c-1.799,0-3.55-0.193-5.233-0.561  c-1.739-0.379-3.403-0.939-4.972-1.66c-0.462-0.211-1.007-0.007-1.218,0.454s-0.007,1.007,0.454,1.218  c1.699,0.781,3.489,1.385,5.346,1.79c1.814,0.396,3.695,0.604,5.623,0.604c7.263,0,13.839-2.944,18.599-7.704  c4.761-4.76,7.704-11.335,7.704-18.599c0-5.55-1.722-10.701-4.66-14.948c-2.514-3.631-5.916-6.599-9.893-8.588l2.356-0.604  c0.491-0.125,0.788-0.626,0.663-1.117c-0.126-0.491-0.626-0.788-1.117-0.663L75.655,34.573L75.655,34.573z M60.808,19.785  c0.228-0.048,0.437-0.18,0.575-0.388c0.16-0.238,0.193-0.524,0.116-0.779l-1.916-7.469c-0.125-0.491-0.625-0.788-1.117-0.663  c-0.491,0.125-0.788,0.625-0.662,1.117l1.356,5.291c-2.488-1.446-5.153-2.614-7.954-3.46c-3.441-1.04-7.091-1.599-10.87-1.599  c-10.363,0-19.746,4.201-26.537,10.993C7.007,29.618,2.807,39,2.807,49.364c0,6.249,1.531,12.147,4.24,17.338  c2.809,5.382,6.885,9.998,11.831,13.451c0.416,0.291,0.988,0.189,1.279-0.227c0.29-0.416,0.188-0.989-0.227-1.279  c-4.706-3.286-8.583-7.676-11.255-12.795C6.104,60.925,4.65,55.317,4.65,49.364c0-9.854,3.995-18.775,10.452-25.233  c6.458-6.458,15.379-10.452,25.233-10.452c3.596,0,7.065,0.531,10.337,1.52c2.699,0.815,5.26,1.939,7.642,3.33l-5.432,1.393  c-0.491,0.125-0.788,0.625-0.662,1.117c0.125,0.492,0.625,0.788,1.116,0.663L60.808,19.785L60.808,19.785z M49.768,72.866  c0.04,0.068,0.089,0.132,0.147,0.191l1.579,1.58l1.58,1.58l0.001-0.001c0.278,0.278,0.714,0.356,1.08,0.164l3.335-1.755l0.685-0.361  c0.664,0.386,1.355,0.729,2.071,1.026c0.705,0.292,1.435,0.54,2.187,0.739l0.228,0.735l1.097,3.533  c0.093,0.411,0.461,0.718,0.899,0.718h2.234h2.234v-0.002c0.393,0,0.757-0.254,0.879-0.649l1.117-3.6l0.228-0.735  c0.751-0.199,1.481-0.447,2.187-0.739c0.716-0.297,1.407-0.641,2.071-1.026l0.685,0.361l3.279,1.725  c0.355,0.22,0.828,0.176,1.137-0.132l1.58-1.58l1.579-1.58l-0.001-0.001c0.277-0.278,0.355-0.714,0.163-1.08l-1.755-3.335  l-0.36-0.685c0.386-0.664,0.729-1.355,1.026-2.072c0.292-0.705,0.539-1.435,0.738-2.186l0.735-0.228l3.533-1.096  c0.411-0.093,0.718-0.46,0.718-0.9V59.24v-2.234h-0.002c0-0.393-0.254-0.757-0.65-0.879l-3.599-1.117l-0.735-0.228  c-0.199-0.751-0.446-1.481-0.738-2.186c-0.297-0.716-0.641-1.408-1.026-2.071l0.36-0.685l1.726-3.279  c0.221-0.355,0.176-0.829-0.133-1.137l-1.579-1.58l-1.58-1.58l-0.001,0.001c-0.277-0.278-0.714-0.356-1.08-0.164l-3.335,1.755  l-0.685,0.36c-0.664-0.386-1.355-0.729-2.072-1.026c-0.704-0.292-1.435-0.54-2.186-0.739l-0.228-0.735l-1.097-3.533  c-0.093-0.412-0.46-0.718-0.899-0.718h-2.234h-2.234v0.002c-0.393,0-0.757,0.254-0.879,0.649l-0.189,0.61  c-0.027-0.058-0.055-0.116-0.082-0.174c-0.328-0.689-0.689-1.364-1.082-2.023l0.645-1.225l2.558-4.858  c0.22-0.355,0.176-0.829-0.133-1.137l-2.328-2.328l-2.328-2.328l-0.001,0.001c-0.277-0.278-0.714-0.356-1.079-0.164l-4.915,2.587  l-1.225,0.645c-1.024-0.609-2.096-1.147-3.208-1.609c-1.094-0.454-2.229-0.833-3.398-1.13l-0.408-1.316l-1.625-5.238  c-0.093-0.411-0.461-0.719-0.899-0.719h-3.293h-3.292v0.003c-0.394,0-0.758,0.254-0.879,0.649l-1.646,5.304l-0.408,1.316  c-1.169,0.298-2.304,0.677-3.398,1.13c-1.112,0.461-2.184,1-3.208,1.609l-1.224-0.645l-4.858-2.557  c-0.356-0.22-0.829-0.176-1.138,0.133l-2.328,2.328l-2.327,2.328l0.001,0.001c-0.278,0.277-0.356,0.714-0.163,1.079l2.586,4.915  l0.645,1.225c-0.608,1.024-1.146,2.096-1.607,3.208c-0.454,1.094-0.833,2.229-1.131,3.398l-1.316,0.408l-5.238,1.626  c-0.411,0.093-0.718,0.46-0.718,0.899v3.292v3.292h0.002c0,0.394,0.254,0.758,0.65,0.879l5.304,1.646l1.316,0.408  c0.297,1.169,0.677,2.304,1.13,3.398c0.461,1.112,1,2.184,1.608,3.208l-0.645,1.225l-2.557,4.858  c-0.221,0.356-0.176,0.829,0.133,1.137l2.327,2.328l2.328,2.328l0.002-0.001c0.277,0.278,0.714,0.356,1.079,0.163l4.915-2.586  l1.224-0.645c1.024,0.608,2.096,1.147,3.208,1.608c1.095,0.454,2.229,0.833,3.398,1.131l0.408,1.316l1.626,5.238  c0.093,0.411,0.46,0.718,0.899,0.718h3.292h3.293v-0.002c0.393,0,0.757-0.254,0.879-0.649l1.646-5.304l0.408-1.316  c0.698-0.178,1.386-0.386,2.063-0.622C49.308,73.038,49.538,72.953,49.768,72.866L49.768,72.866z M64.6,41.677  c-0.01,0.04-0.022,0.079-0.037,0.117l-0.144,0.464l-0.373,1.201c-0.086,0.318-0.34,0.58-0.684,0.658  c-0.829,0.193-1.634,0.453-2.41,0.774c-0.787,0.327-1.543,0.717-2.26,1.164v0c-0.269,0.167-0.615,0.191-0.915,0.033l-1.145-0.603  l-2.733-1.438l-1.101,1.101l-1.101,1.101l1.438,2.733l0.585,1.113c0.164,0.285,0.17,0.648-0.016,0.947  c-0.446,0.717-0.837,1.473-1.163,2.26c-0.321,0.776-0.582,1.581-0.774,2.41l0,0c-0.071,0.31-0.302,0.574-0.627,0.674l-1.232,0.382  l-2.947,0.915v1.558v1.557l2.947,0.915l1.201,0.373c0.318,0.085,0.579,0.34,0.658,0.684c0.192,0.829,0.452,1.634,0.774,2.41  c0.326,0.788,0.717,1.543,1.163,2.26l0,0c0.166,0.269,0.19,0.615,0.032,0.915l-0.602,1.145l-1.154,2.191l-0.009,0.017l-0.275,0.525  l1.101,1.101l1.101,1.101l2.733-1.438l1.112-0.585c0.285-0.164,0.648-0.17,0.947,0.016c0.717,0.447,1.473,0.837,2.26,1.164  c0.776,0.321,1.582,0.582,2.41,0.774v0.001c0.31,0.071,0.574,0.301,0.674,0.626l0.383,1.232l0.914,2.947h1.558h1.558l0.914-2.947  l0.373-1.201c0.086-0.318,0.34-0.58,0.684-0.659c0.829-0.192,1.634-0.452,2.409-0.774c0.788-0.327,1.544-0.717,2.261-1.164v0  c0.269-0.167,0.616-0.191,0.915-0.033l1.145,0.602l2.733,1.438l1.101-1.101l1.101-1.101l-1.438-2.733l-0.585-1.112  c-0.164-0.285-0.17-0.649,0.016-0.947c0.446-0.717,0.837-1.473,1.163-2.26c0.322-0.776,0.582-1.581,0.774-2.41h0.001  c0.071-0.31,0.301-0.574,0.626-0.674l1.232-0.382l2.947-0.915V59.24v-1.558l-2.947-0.915l-1.201-0.373  c-0.318-0.085-0.579-0.34-0.658-0.683c-0.192-0.829-0.452-1.634-0.774-2.41c-0.326-0.788-0.717-1.543-1.163-2.26l0,0  c-0.166-0.268-0.19-0.615-0.033-0.915l0.603-1.145l1.438-2.733l-1.101-1.101l-1.101-1.101l-2.733,1.438l-1.112,0.585  c-0.285,0.165-0.648,0.17-0.947-0.016c-0.717-0.447-1.473-0.837-2.261-1.164c-0.775-0.322-1.58-0.582-2.409-0.774l0,0  c-0.31-0.071-0.574-0.301-0.674-0.626l-0.383-1.233l-0.914-2.947h-1.558h-1.558L64.6,41.677L64.6,41.677z M62.732,41.485  c-0.262-0.729-0.56-1.443-0.891-2.138c-0.38-0.796-0.8-1.562-1.257-2.295l0.001,0c-0.167-0.268-0.191-0.615-0.033-0.915l0.888-1.687  l2.27-4.313l-1.849-1.849l-1.85-1.849l-4.313,2.27l-1.655,0.871c-0.284,0.165-0.648,0.17-0.946-0.015  c-1.077-0.671-2.212-1.257-3.395-1.748c-1.165-0.483-2.374-0.874-3.621-1.163v0c-0.31-0.071-0.573-0.301-0.674-0.626l-0.563-1.817  l-1.443-4.652h-2.616H38.17l-1.443,4.652l-0.555,1.785c-0.085,0.318-0.34,0.58-0.684,0.659c-1.246,0.29-2.456,0.68-3.621,1.163  c-1.183,0.491-2.317,1.076-3.394,1.748v-0.001c-0.269,0.167-0.616,0.191-0.915,0.033l-1.688-0.888l-4.313-2.27l-1.849,1.849  l-1.849,1.849l2.27,4.313l0.871,1.655c0.164,0.285,0.17,0.648-0.016,0.947c-0.671,1.077-1.257,2.211-1.747,3.394  c-0.483,1.165-0.874,2.375-1.164,3.622l0,0c-0.071,0.31-0.301,0.574-0.626,0.674l-1.817,0.563l-4.651,1.444v2.616v2.615l4.651,1.444  l1.785,0.554c0.318,0.085,0.58,0.34,0.658,0.684c0.29,1.247,0.681,2.456,1.164,3.621c0.49,1.184,1.076,2.318,1.747,3.395h-0.001  c0.167,0.268,0.191,0.615,0.033,0.915l-0.888,1.687l-2.27,4.313l1.849,1.849l1.849,1.849l4.313-2.27l1.655-0.871  c0.285-0.164,0.648-0.17,0.947,0.016c1.076,0.671,2.211,1.256,3.394,1.747c1.165,0.483,2.375,0.874,3.621,1.163v0  c0.31,0.071,0.574,0.301,0.674,0.626l0.564,1.816l1.443,4.652h2.615h2.616l1.443-4.652l0.554-1.785  c0.086-0.318,0.341-0.58,0.684-0.659c0.816-0.189,1.612-0.42,2.387-0.69c0.687-0.24,1.363-0.513,2.026-0.818l1.013-1.924l0.36-0.685  c-0.386-0.664-0.729-1.355-1.026-2.072c-0.292-0.705-0.539-1.435-0.738-2.186L49.9,63.636c-1.276,0.817-2.671,1.467-4.151,1.921  c-1.577,0.483-3.244,0.743-4.964,0.743c-4.677,0-8.911-1.896-11.976-4.96s-4.96-7.299-4.96-11.976s1.896-8.911,4.96-11.976  s7.299-4.961,11.976-4.961c3.641,0,7.017,1.152,9.782,3.112c2.738,1.941,4.875,4.677,6.075,7.872l0.848,0.446l0.685,0.36  c0.664-0.386,1.355-0.729,2.071-1.026c0.705-0.292,1.436-0.54,2.187-0.739l0.228-0.735L62.732,41.485L62.732,41.485z M53.981,42.03  c-0.312-0.09-0.661-0.012-0.907,0.234l-1.58,1.58l-1.579,1.58l0.001,0.001c-0.277,0.278-0.355,0.714-0.163,1.08l1.755,3.335  l0.36,0.685c-0.386,0.664-0.729,1.355-1.025,2.071c-0.293,0.705-0.54,1.435-0.739,2.186l-0.735,0.228l-3.533,1.097  c-0.41,0.093-0.718,0.46-0.718,0.899v2.234v2.234h0.003c-0.001,0.394,0.254,0.758,0.649,0.879l1.727,0.537  c-0.729,0.362-1.491,0.667-2.28,0.909c-1.394,0.427-2.881,0.656-4.431,0.656c-4.167,0-7.94-1.689-10.671-4.42  c-2.731-2.731-4.421-6.504-4.421-10.671s1.689-7.94,4.421-10.671c2.73-2.731,6.504-4.42,10.671-4.42c3.25,0,6.257,1.023,8.716,2.766  C51.343,38.343,52.879,40.05,53.981,42.03L53.981,42.03z M73.923,52.208c-1.8-1.799-4.286-2.913-7.032-2.913  s-5.232,1.113-7.032,2.913c-1.799,1.8-2.912,4.286-2.912,7.032s1.113,5.232,2.912,7.032c1.8,1.799,4.286,2.913,7.032,2.913  s5.232-1.113,7.032-2.913c1.799-1.799,2.912-4.286,2.912-7.032S75.722,54.008,73.923,52.208z" clip-rule="evenodd" fill-rule="evenodd"/>
</svg>