<svg viewBox="-5 -10 115.4054054054054 116.64" version="1.1" xmlns="http://www.w3.org/2000/svg" style="max-height: 500px" width="115.4054054054054" height="116.64">
 <path fill="white" fill-rule="evenodd" d="m14.539 5.5234c-5.5273 0.097656-5.5273 8.3164 0 8.4141 5.5-0.035156 5.5-8.3867 0-8.4141zm-1.8242 6.0312c-2.3828-2.3906 1.2578-6.0312 3.6523-3.6523 2.3789 2.3945-1.2578 6.0312-3.6523 3.6523zm13.688-6.0312c-5.5273 0.097656-5.5273 8.3125 0 8.4141 5.5273-0.097656 5.5273-8.3164 0-8.4141zm-1.8242 6.0312c-2.3828-2.3867 1.2539-6.0352 3.6484-3.6523 2.3828 2.3867-1.2578 6.0352-3.6484 3.6523zm33.277-6.0312h-19.59c-5.5 0.035156-5.4922 8.375 0 8.4141h19.59c1.1562 0 2.207-0.47266 2.9727-1.2383 2.6406-2.457 0.67969-7.2969-2.9727-7.1758zm0 6.7891h-19.59c-0.71094 0-1.3594-0.28906-1.8242-0.75781-1.6211-1.5039-0.42188-4.4883 1.8242-4.4102h19.59c3.3789 0.023438 3.3711 5.1523 0 5.168zm-46.707 28.27h13.422c1.0469-0.015625 1.0547 1.6367 0 1.625l-13.422-0.003906c-1.0508 0.015625-1.0586-1.6367 0-1.6211zm0 7.7188h2.8047c1.0508-0.015625 1.0547 1.6367 0 1.625h-2.8047c-1.0547 0.011719-1.0547-1.6406 0-1.625zm13.422 1.6211h-7.2266c-1.0508 0.015625-1.0547-1.6367 0-1.625h7.2266c1.0508-0.011719 1.0547 1.6406 0 1.625zm-6.2383 7.7227h-7.1836c-1.0508 0.015625-1.0547-1.6367 0-1.625h7.1836c1.0508-0.015625 1.0508 1.6367 0 1.625zm7.0508-0.8125c0.039063 1.2812-2.3008 0.6875-3.0156 0.8125-1.0508 0.015625-1.0547-1.6367 0-1.625 0.71875 0.125 3.0469-0.46875 3.0156 0.8125zm68.793-14.488h-12.656l14.219-14.223c0.48828-0.37891 1.043-0.99219 1.6094-1.6094l1.2617-1.2617c0.003906-0.003906 0.003906-0.003906 0.007813-0.007812 0.29297-0.29297 0.51172-0.63281 0.66016-0.99609 0.29297-0.72656 0.29297-1.543 0-2.2656-0.14844-0.36328-0.36719-0.70312-0.66016-0.99609l-4.8594-4.8594c-0.82812-0.79688-1.6367-0.96484-2.418-0.82422-0.67188 0.066407-1.332 0.3125-1.8438 0.82422l-0.42578 0.42578c-0.88281 0.77734-1.6914 1.7109-2.4023 2.4023l-12.637 12.637v-25.375c0-0.54688-0.10156-1.0703-0.25-1.5742-0.27344-0.9375-0.75391-1.7852-1.4297-2.4609-0.46875-0.46875-1.0312-0.84766-1.6406-1.1328-0.0625-0.027344-0.11328-0.070313-0.17578-0.097656-0.054687-0.023438-0.11719-0.03125-0.17188-0.054688-0.63672-0.24609-1.3203-0.39844-2.043-0.39844l-62.105 0.003906c-3.1328-0.003906-5.7148 2.5742-5.7148 5.7148v54.453c0 1.5703 0.64453 2.9922 1.6797 4.0352 1.0352 1.0352 2.4648 1.6758 4.0352 1.6758h25.477v24.809c-0.011718 0.76953-0.035156 1.6133 0 2.4609v0.53125c0 0.085937 0.042969 0.15625 0.046875 0.23828 0.058594 0.62891 0.17188 1.2383 0.36719 1.793 0.003906 0.011718 0.003906 0.027343 0.011719 0.039062 0.23047 0.64453 0.57422 1.2148 1.0938 1.6406 0.007812 0.007813 0.015624 0.007813 0.023437 0.015625 0.011719 0.011719 0.011719 0.023438 0.023437 0.035156 0.33203 0.33203 0.75781 0.55078 1.168 0.78906 0.17969 0.10156 0.32031 0.26172 0.51172 0.34375 0.63281 0.26953 1.3359 0.42578 2.0742 0.42578h57.164c2.9297 0 5.3242-2.3945 5.3242-5.3203v-46.512c0-2.9297-2.3945-5.3242-5.3242-5.3242zm0 1.625c1.0156 0 1.9414 0.41797 2.6133 1.0859 0.66797 0.66797 1.0859 1.5977 1.0859 2.6133v31.871l-12.578-12.574c-0.53906-0.53516-1.2461-0.80469-1.9453-0.80469-0.70703 0-1.4141 0.26953-1.9492 0.80469l-17.141 17.137c-0.42969 0.42969-1.1289 0.4375-1.5742 0.035157l-10.707-10.707c-1.0781-1.0742-2.8242-1.0742-3.8984 0l-14.77 14.773v-40.535c0-2.0352 1.6641-3.6992 3.6992-3.6992h27.648c-0.41797 1.3594-0.80859 2.7188-1.0742 4.082-0.10938 0.51562-0.20703 0.99219-0.32031 1.2422-0.078125 0.29688-0.046875 0.59375 0.03125 0.87891 0 0.023437-0.007813 0.042969-0.007813 0.066406 0.015626 0.050781 0.066407 0.089844 0.085938 0.14062 0.078125 0.1875 0.17969 0.35156 0.30859 0.50391 0.054687 0.0625 0.097656 0.125 0.16016 0.17969 0.20703 0.1875 0.44141 0.33984 0.71875 0.41016 0.125 0.058594 0.36719 0.046875 0.64844 0.011719 0.085937-0.007813 0.16016-0.011719 0.25391-0.03125 0.73047-0.12891 1.7188-0.41797 2.5273-0.65625 0.070312-0.015625 0.18359-0.054687 0.23437-0.0625 0.011719-0.003906 0.015626-0.011719 0.027344-0.015625 0.45703-0.13281 0.82812-0.23828 1.0117-0.26172l5.4453-1.4609c0.074218-0.019532 0.10547-0.089844 0.16406-0.12891 0.066406-0.035157 0.14453-0.027344 0.19922-0.082032l4.8164-4.8203zm-7.125-23.102 6.8242 6.8242-14.891 14.895c-0.003906 0.007812-0.011719 0.011718-0.015625 0.015624l-4.4609 4.4609-6.8242-6.8242zm-18.789 28.18-2.6602-2.6562c0.55078-1.9688 1.2578-4.1211 1.3516-4.582l5.9883 5.9883zm-3.1797 0.85156c-0.17578-0.007813-0.16797-0.41016-0.078125-0.99219 0.089844-0.25391 0.17969-0.49219 0.21094-0.61328l1.2383 1.2422zm32.754-26.871c0 0.058594 0.011718 0.12109 0 0.17969-0.019532 0.27734-0.13281 0.54297-0.31641 0.76562-0.074219 0.10938-0.16406 0.21875-0.25391 0.32812l-1.3867 1.3867c-0.35938 0.32422-0.67969 0.61719-0.85547 0.85547l-6.8242-6.8242c0.17578-0.125 0.46484-0.4375 0.80469-0.80469l1.4492-1.4492c0.09375-0.078125 0.18359-0.15625 0.27344-0.22266 0.46094-0.39844 1.0859-0.39063 1.5938-0.082032 0.24219 0.16406 0.51563 0.38281 0.82422 0.65625l2.8711 2.8711c0.69141 0.72656 1.2539 1.3242 1.4531 1.4531 0.24609 0.23828 0.34375 0.5625 0.36719 0.88672zm-95.711-16.812c0-0.5625 0.11328-1.1016 0.32422-1.5898 0.027343-0.0625 0.082031-0.10156 0.10938-0.16016 0.19922-0.41797 0.44141-0.81641 0.76562-1.1406 0.17969-0.17578 0.41797-0.27734 0.625-0.42188 0.22656-0.15625 0.42188-0.34766 0.67578-0.45703 0.48828-0.20703 1.0273-0.32031 1.5898-0.32031h62.105c0.78906 0 1.4844 0.28516 2.1133 0.67578 1.1602 0.72266 1.9766 1.9492 1.9766 3.4141v11.117h-70.285zm4.0898 58.539c-2.25-0.003906-4.0898-1.832-4.0898-4.0859v-41.711h70.285v14.258l-6.4492 6.4492s0 0.003907-0.003907 0.007813c-0.10547 0.10156-0.18359 0.23047-0.21484 0.38672-0.16016 0.76172-0.37109 1.5234-0.59766 2.2852h-28.133c-2.9297 0-5.3203 2.3945-5.3242 5.3242v17.086zm30.797 33.121c-2.0312-0.003906-3.6992-1.6602-3.6992-3.6992v-3.6797l15.918-15.918c0.4375-0.44141 1.168-0.44141 1.6055 0l10.727 10.723c1.082 1.0273 2.7891 1.0039 3.8438-0.050781l17.137-17.137c0.4375-0.4375 1.168-0.44141 1.6055 0l13.727 13.723v12.344c0 2.0312-1.6641 3.6953-3.6992 3.6992zm12.922-45.926c-9.3945 0.16406-9.4023 14.141 0 14.305 9.3906-0.16797 9.4023-14.141 0-14.305zm-3.9102 11.059c-5.0508-5.2188 2.5977-12.867 7.8164-7.8164 5.0547 5.2188-2.5938 12.871-7.8164 7.8164zm-22.961 10.742h-19.375c-1.7539 0-3.1836 1.4297-3.1875 3.1875v19.379c0 1.7461 1.4336 3.1875 3.1875 3.1836h19.379c1.7461 0 3.1875-1.4375 3.1875-3.1875l-0.003906-19.375c0-0.875-0.35938-1.6758-0.9375-2.25-0.57812-0.57812-1.375-0.9375-2.25-0.9375zm1.5625 22.562c0 0.85938-0.69922 1.5625-1.5625 1.5625h-19.375c-0.85938 0-1.5664-0.69922-1.5625-1.5625v-19.375c0-0.42969 0.17578-0.82031 0.45703-1.1016s0.67188-0.45703 1.1016-0.45703h19.379c0.85938 0 1.5625 0.70312 1.5625 1.5625zm-3.793-16.332c0.082031 0.56641-0.011719 1.2617 0.03125 1.6367 0.015625 1.0508-1.6367 1.0547-1.625 0 0.023438-0.20703 0.007813-0.52344-0.003906-0.85547h-5.0508v11.699c0.94141 0 1.707 0.14062 1.6719 0.84375 0.074219 1.3242-2.6719 0.66406-4.1523 0.8125-1.0508 0.015624-1.0547-1.6367 0-1.625 0.25391 0.027343 0.55078 0.023437 0.85938 0.015624v-11.746h-5.0547v0.85547c0.015626 1.0508-1.6367 1.0547-1.625 0v-1.6719c0-0.12891 0.082032-0.19141 0.12109-0.28906 0.035156-0.097656 0.046875-0.20312 0.11719-0.28125 0.070312-0.0625 0.16406-0.070312 0.25-0.10547 0.10156-0.050781 0.17578-0.13672 0.32031-0.13281h13.355 0.003906c0.007813 0 0.007813 0.007812 0.015625 0.007812 0.26172 0 0.45703 0.10547 0.58594 0.26562 0.035156 0.050782 0.039062 0.12891 0.066406 0.1875 0.054688 0.125 0.11719 0.24219 0.11328 0.38281zm-5.2227-46.164h43.312c5.5117-0.035156 5.4805-8.3789 0-8.4141l-43.312 0.003906c-5.5312 0.10547-5.5156 8.3086 0 8.4102zm-1.8242-6.0312c0.46484-0.46875 1.1133-0.75781 1.8242-0.75781h43.312c3.3867 0.019531 3.3594 5.1445 0 5.1641l-43.312 0.003906c-2.25 0.074219-3.4375-2.9023-1.8242-4.4102z"/>
</svg>