<svg viewBox="-5 3.7159999999999993 117.83783783783784 95.30999999999999" version="1.1" xmlns="http://www.w3.org/2000/svg" style="max-height: 500px" width="117.83783783783784" height="95.30999999999999">
 <path fill="white" d="m44.219 46.203c0.84375 0.78125 1.3359 1.8789 1.3516 3.0312v2.4883c0 0.20312 0.082032 0.40234 0.22656 0.54297 0.14453 0.14453 0.33984 0.22656 0.54297 0.22656h0.47656c0.58203 1.2344 1.8242 2.0234 3.1914 2.0234 1.3672 0 2.6094-0.78906 3.1914-2.0234h0.47656c0.20703 0 0.40234-0.082032 0.54297-0.22656 0.14453-0.14062 0.22656-0.33984 0.22656-0.54297v-2.2109c0-0.007813-0.003906-0.015625-0.003906-0.027344v-0.17188c-0.019531-1.1289 0.42969-2.2148 1.2422-3 1.957-1.8047 2.9219-4.4375 2.6055-7.082-0.51953-4.3828-4.3633-7.6016-8.7695-7.3398-4.4062 0.25781-7.8438 3.9062-7.8477 8.3203-0.003906 2.2578 0.91406 4.4258 2.5469 5.9922zm3.875-4.7383h-0.007812l0.007812-0.27734zm1.5352 1.5391h0.75391l0.003907 5.7383h-0.75391zm3.2773 7.2773v0.67578h-5.7969v-0.67578zm-4.2148 2.2109h2.6328c-0.77344 0.61328-1.8633 0.61328-2.6328 0zm-3.2227-17.344c1.8906-1.6953 4.5664-2.1953 6.9414-1.3008 2.375 0.89453 4.0508 3.0391 4.3516 5.5586 0.26172 2.1562-0.52734 4.3047-2.125 5.7812-0.98438 0.9375-1.5898 2.2031-1.707 3.5547h-1.0078l0.003906-5.7383h0.003907c0.84766 0 1.5352-0.6875 1.5352-1.5391v-0.27734c0-0.84766-0.6875-1.5391-1.5391-1.5391-0.85156 0-1.5391 0.69141-1.5391 1.5391v0.27734h-0.75781v-0.27734c0-0.84766-0.6875-1.5352-1.5391-1.5352-0.84766 0-1.5352 0.6875-1.5391 1.5352v0.27734c0 0.85156 0.69141 1.5391 1.5391 1.5391l0.003906 5.7383h-1.0078c-0.14063-1.3906-0.78125-2.6875-1.8008-3.6445-1.3555-1.3125-2.1094-3.1289-2.0742-5.0156 0.035156-1.8867 0.85156-3.6719 2.2578-4.9336z"/>
 <path fill="white" d="m50.008 30.625c0.20313 0 0.39844-0.082031 0.54297-0.22266 0.14453-0.14453 0.22656-0.33984 0.22656-0.54688v-4.0469c-0.003906-0.42188-0.34766-0.76562-0.76953-0.76562-0.42187 0-0.76562 0.34375-0.76953 0.76562v4.0469c0 0.20703 0.082031 0.40234 0.22656 0.54688 0.14453 0.14062 0.33984 0.22266 0.54297 0.22266z"/>
 <path fill="white" d="m57.164 33.59c0.20313 0 0.39844-0.082032 0.54297-0.22656l2.8633-2.8633v0.003906c0.30078-0.30078 0.30078-0.78906 0-1.0898-0.30078-0.29687-0.78906-0.29687-1.0859 0l-2.8633 2.8633c-0.22266 0.21875-0.28516 0.55078-0.16797 0.83594 0.11719 0.28906 0.39844 0.47656 0.71094 0.47656z"/>
 <path fill="white" d="m59.359 39.977c0 0.20313 0.078125 0.39844 0.22266 0.54297s0.33984 0.22656 0.54688 0.22656h4.0469c0.42188 0 0.76953-0.34375 0.76953-0.76953 0-0.42187-0.34766-0.76953-0.76953-0.76953h-4.0469c-0.20703 0-0.40234 0.082031-0.54688 0.22656-0.14453 0.14453-0.22266 0.33984-0.22266 0.54297z"/>
 <path fill="white" d="m42.309 33.363c0.30078 0.30078 0.78516 0.30078 1.0859 0s0.30078-0.78516 0-1.0859l-2.8633-2.8633c-0.30078-0.29687-0.78516-0.29687-1.0859 0-0.30078 0.30078-0.30078 0.78906 0 1.0898z"/>
 <path fill="white" d="m40.656 39.977c0-0.20312-0.082031-0.39844-0.22656-0.54297-0.14453-0.14453-0.33984-0.22656-0.54297-0.22656h-4.0469c-0.42578 0-0.76953 0.34766-0.76953 0.76953 0 0.42578 0.34375 0.76953 0.76953 0.76953h4.0469c0.20312 0 0.39844-0.082032 0.54297-0.22656 0.14453-0.14453 0.22656-0.33984 0.22656-0.54297z"/>
 <path fill="white" d="m50 57.668c4.7969 0 9.3984-1.9062 12.789-5.3008 3.3906-3.3906 5.2969-7.9883 5.2969-12.785s-1.9062-9.3984-5.2969-12.789c-3.3906-3.3945-7.9922-5.3008-12.789-5.3008s-9.3984 1.9062-12.789 5.3008c-3.3906 3.3906-5.2969 7.9922-5.2969 12.789 0.003907 4.793 1.9141 9.3906 5.3047 12.781s7.9844 5.2969 12.781 5.3047zm0-34.637c4.3906 0 8.5977 1.7422 11.703 4.8477 3.1016 3.1016 4.8477 7.3125 4.8477 11.703 0 4.3867-1.7461 8.5977-4.8477 11.699-3.1055 3.1055-7.3125 4.8477-11.703 4.8477s-8.5977-1.7422-11.703-4.8477c-3.1016-3.1016-4.8477-7.3125-4.8477-11.699 0.007812-4.3906 1.75-8.5977 4.8555-11.699 3.1016-3.1016 7.3086-4.8477 11.695-4.8516z"/>
 <path fill="white" d="m96.105 35.707h-7.2734v-7.2617c0-0.20703-0.082031-0.40234-0.22266-0.54687-0.14453-0.14063-0.33984-0.22266-0.54688-0.22266h-16.535c-0.16016-0.29688-0.31641-0.59375-0.5-0.89062l2.4258-2.332h0.003906c0.14453-0.14062 0.23047-0.33594 0.23438-0.53906 0.003906-0.20312-0.074218-0.39844-0.21484-0.54687l-6.375-6.6211c-0.14453-0.14453-0.33594-0.23047-0.53906-0.23438-0.20703-0.003907-0.40234 0.074219-0.55078 0.21484l-2.4141 2.332c-2.3711-1.5859-5.0039-2.7383-7.7812-3.4023l0.066406-3.3594c0.007813-0.42578-0.32812-0.77734-0.75391-0.78516l-9.1875-0.17969-0.011718 0.003907c-0.41797-0.003907-0.76172 0.33203-0.76953 0.75l-0.066406 3.3633c-2.7969 0.55859-5.4688 1.6094-7.8984 3.1016l-2.332-2.4258c-0.14062-0.14844-0.33594-0.23047-0.53906-0.23438-0.20312 0-0.39844 0.078125-0.54688 0.21484l-6.6211 6.375c-0.30469 0.29297-0.31641 0.78125-0.023438 1.0859l2.332 2.4258c-0.36719 0.55469-0.70312 1.1172-1.0156 1.6836h-16.512c-0.20703 0-0.40234 0.082031-0.54688 0.22266-0.14062 0.14453-0.22266 0.33984-0.22266 0.54687v7.2617h-7.2734c-0.20312 0-0.40234 0.082031-0.54297 0.22266-0.14453 0.14453-0.22656 0.33984-0.22656 0.54687v51.422c0 0.20312 0.082031 0.39844 0.22656 0.54297 0.14063 0.14453 0.33984 0.22656 0.54297 0.22656h46.102l0.003906-0.003907h46.105v0.003907c0.20312 0 0.40234-0.082031 0.54297-0.22656 0.14453-0.14453 0.22656-0.33984 0.22656-0.54297v-51.422c0-0.20703-0.082031-0.40234-0.22656-0.54687-0.14063-0.14063-0.33984-0.22266-0.54297-0.22266zm-8.8125-6.4961v6.8281l0.003906 0.003907c-0.015625 0.027343-0.03125 0.058593-0.042969 0.089843-0.015625 0.023438-0.027344 0.046876-0.039062 0.070313-0.03125 0.085937-0.050782 0.17969-0.050782 0.27344v44.043h-17.418c-6.3711-0.003906-12.605 1.8359-17.949 5.3008l-1.0234 0.66406v-18.723l3.2734 0.0625h0.015625c0.41797 0 0.75781-0.33203 0.76562-0.75l0.066406-3.3594v-0.003906c2.793-0.55078 5.4648-1.5977 7.8906-3.0898l2.3438 2.4258h-0.003906c0.29688 0.30469 0.78125 0.31641 1.0859 0.019531l6.6211-6.375c0.14844-0.14062 0.23438-0.33594 0.23828-0.53906 0.003907-0.20312-0.074218-0.40234-0.21484-0.54688l-2.332-2.4141v-0.003906c1.5859-2.3672 2.7383-5.0039 3.3984-7.7773l3.3594 0.066406h0.003906c0.42188 0.007813 0.77344-0.33203 0.78125-0.75391l0.17969-9.1875c0.007812-0.42578-0.32812-0.77734-0.75391-0.78516l-3.3633-0.0625c-0.10547-0.53125-0.23438-1.0547-0.375-1.5742-0.046875-0.17578-0.10156-0.34766-0.15234-0.51953-0.10156-0.34766-0.21094-0.69141-0.32812-1.0312-0.066407-0.19531-0.14063-0.39062-0.21484-0.58594-0.12109-0.32031-0.24609-0.63672-0.38281-0.95312-0.078125-0.1875-0.15625-0.375-0.24219-0.55859-0.039063-0.082032-0.070313-0.16797-0.10938-0.25391zm-58.52-6.1562 5.5156-5.3086 2.2344 2.3242v-0.003906c0.25391 0.26562 0.66406 0.3125 0.97266 0.11328 2.5703-1.6797 5.4609-2.8125 8.4883-3.332 0.35938-0.0625 0.62891-0.375 0.63672-0.74219l0.0625-3.2188 7.6484 0.14844-0.0625 3.2188c-0.007812 0.36719 0.25 0.69141 0.60938 0.76562 3.0078 0.63672 5.8516 1.8789 8.3594 3.6562 0.30078 0.21094 0.71094 0.17969 0.97656-0.078125l2.3125-2.2305 5.3086 5.5117-2.3242 2.2344c-0.26562 0.25391-0.3125 0.66406-0.10938 0.97266 0.36328 0.55469 0.69922 1.1289 1 1.7227 1.1328 2.1133 1.9219 4.3984 2.3281 6.7656 0.066406 0.36328 0.375 0.62891 0.74219 0.63672l3.2188 0.0625-0.14844 7.6484-3.2188-0.0625h-0.015625 0.003906c-0.36328 0-0.67969 0.25391-0.75391 0.60938-0.63281 3.0078-1.8789 5.8516-3.6523 8.3594-0.21094 0.30078-0.17969 0.71094 0.074219 0.97656l2.2305 2.3125-5.5156 5.3086-2.2422-2.3242h0.003906c-0.25781-0.26562-0.66406-0.30859-0.97266-0.10937-2.5664 1.6758-5.4531 2.8086-8.4766 3.3203-0.36328 0.0625-0.63281 0.375-0.63672 0.74219l-0.0625 3.2188-3.0859-0.058594-4.5664-0.089844 0.0625-3.2188c0.007812-0.36719-0.24609-0.69141-0.60938-0.76562-3-0.63281-5.8438-1.8711-8.3477-3.6445-0.30078-0.21094-0.71094-0.17969-0.97656 0.074218l-2.3203 2.2344-5.3008-5.5117 2.3242-2.2344c0.26562-0.25391 0.3125-0.66406 0.10938-0.97266-1.6758-2.5742-2.8086-5.4609-3.3281-8.4883-0.066406-0.36328-0.375-0.62891-0.74219-0.63672l-3.2188-0.0625 0.14844-7.6484 3.2188 0.0625h-0.003906c0.36719 0 0.6875-0.25391 0.76953-0.60938 0.12109-0.57812 0.27344-1.1523 0.44141-1.7227 0.42578-1.4453 0.99609-2.8438 1.6953-4.1797 0.45312-0.84766 0.95703-1.6641 1.5039-2.4492 0.21094-0.30078 0.17969-0.70703-0.074219-0.97266zm-16.07 6.1562h14.957c-0.023437 0.050781-0.042968 0.10156-0.066406 0.14844-0.054688 0.12109-0.10547 0.23828-0.15625 0.35938-0.13672 0.30859-0.26562 0.62109-0.38672 0.9375-0.054687 0.14453-0.11328 0.29297-0.16406 0.4375-0.11328 0.30859-0.21875 0.61719-0.31641 0.92578-0.042968 0.13672-0.089843 0.26953-0.13281 0.40625-0.13281 0.44141-0.25781 0.88281-0.36328 1.332l-3.3594-0.0625c-0.20312 0.003907-0.39453 0.082032-0.54688 0.21484-0.14844 0.14062-0.23047 0.33594-0.23438 0.53906l-0.17969 9.1875c-0.007812 0.42578 0.32812 0.77344 0.75391 0.78125l3.3633 0.066406c0.41797 2.0977 1.1133 4.125 2.0625 6.0391 0.31641 0.63281 0.66016 1.2539 1.0352 1.8633l-2.4258 2.332c-0.30469 0.29297-0.3125 0.77734-0.019531 1.0859l6.3633 6.6211h0.003906c0.14062 0.14453 0.33203 0.23047 0.53516 0.23438 0.20703 0.007813 0.40625-0.070312 0.55078-0.21484l2.4258-2.332c2.3672 1.582 4.9961 2.7305 7.7695 3.3906l-0.066406 3.3594c-0.007813 0.42578 0.32812 0.77734 0.75391 0.78516l4.3672 0.085937v18.75l-1.0234-0.66406c-5.3477-3.4648-11.578-5.3047-17.949-5.3008h-17.418v-44.043c0-0.09375-0.019532-0.1875-0.050782-0.27344-0.011718-0.023437-0.023437-0.046875-0.039062-0.070313-0.011719-0.03125-0.027344-0.0625-0.042969-0.089843zm-8.043 57.918v-49.887h6.5039v44.043l0.003907 0.003906c0 0.20313 0.082031 0.39844 0.22266 0.54297 0.14453 0.14453 0.33984 0.22266 0.54688 0.22266h18.316c6.0703 0 12.016 1.7539 17.109 5.0547l0.03125 0.019531zm90.676 0h-42.734l0.03125-0.019531c5.0977-3.3008 11.039-5.0547 17.113-5.0547h18.32-0.003906c0.20703 0 0.40234-0.078126 0.54688-0.22266 0.14062-0.14453 0.22266-0.33984 0.22266-0.54297v-44.047h6.5039z"/>
 <path fill="white" d="m80.602 71.473h-8.5781c-5.3867 0-10.664 1.5234-15.219 4.4023-0.35938 0.22656-0.46484 0.70312-0.23828 1.0625 0.22656 0.35938 0.69922 0.46484 1.0586 0.23828 4.3086-2.7227 9.3008-4.168 14.398-4.168h8.5781c0.20703 0.003907 0.40234-0.078124 0.54688-0.22266 0.14453-0.14453 0.22656-0.33984 0.22656-0.54297 0-0.20703-0.082031-0.40234-0.22656-0.54688-0.14453-0.14062-0.33984-0.22266-0.54688-0.22266z"/>
 <path fill="white" d="m56.805 69.004c-0.35938 0.22656-0.46484 0.69922-0.23828 1.0586 0.22656 0.35938 0.69922 0.46484 1.0586 0.23828 4.3086-2.7227 9.3008-4.168 14.398-4.1641h8.5781c0.42578 0 0.76953-0.34375 0.76953-0.76953 0-0.42578-0.34375-0.76953-0.76953-0.76953h-8.5781c-5.3867 0-10.664 1.5273-15.219 4.4062z"/>
 <path fill="white" d="m19.41 73.008h8.5781c5.0977 0 10.09 1.4453 14.398 4.168 0.35938 0.22656 0.83203 0.12109 1.0586-0.23828 0.22656-0.35938 0.12109-0.83594-0.23828-1.0625-4.5547-2.8789-9.832-4.4062-15.219-4.4023h-8.5781c-0.20703 0-0.40234 0.082032-0.54688 0.22266-0.14453 0.14453-0.22656 0.33984-0.22656 0.54688 0 0.20312 0.082031 0.39844 0.22656 0.54297 0.14453 0.14453 0.33984 0.22656 0.54688 0.22266z"/>
 <path fill="white" d="m19.41 66.137h8.5781c5.0977-0.003907 10.09 1.4414 14.398 4.1641 0.35938 0.22656 0.83203 0.12109 1.0586-0.23828 0.22656-0.35938 0.12109-0.83203-0.23828-1.0586-4.5547-2.8789-9.832-4.4062-15.219-4.4062h-8.5781c-0.42578 0-0.76953 0.34375-0.76953 0.76953 0 0.42578 0.34375 0.76953 0.76953 0.76953z"/>
</svg>