<svg viewBox="0 0 75.36 68.8" xmlns="http://www.w3.org/2000/svg">
<g data-name="decision making">
<path d="M30.99512,62.51074a5.07067,5.07067,0,0,1-5.001-5.31347h-3.0459a1.32,1.32,0,0,1-1.31836-1.31836V46.18164a1.32,1.32,0,0,1,1.31836-1.31836h.79883a9.54272,9.54272,0,0,0-3.91016-6.85205,20.19659,20.19659,0,0,1-8.07714-14.64844,9.06017,9.06017,0,0,1-10.5097-8.878c-.043-8.122,10.15611-12.10965,15.62005-6.11956C24.50385-.82722,39.399-.68106,47.13867,8.35547,52.5938,2.37655,62.79725,6.36878,62.74993,14.485a9.07109,9.07109,0,0,1-10.53606,8.87631,20.07162,20.07162,0,0,1-6.499,13.33447c-3.5166,2.627-5.30175,5.29492-5.47851,8.16748h.81836a1.32,1.32,0,0,1,1.31836,1.31836v9.69727a1.32,1.32,0,0,1-1.31836,1.31836h-3.0459a5.071,5.071,0,0,1-4.9932,5.31344Zm-3.501-5.31347A3.573,3.573,0,0,0,31.003,61.01072l2.00486,0a3.57348,3.57348,0,0,0,3.501-3.81347Zm9.72461-1.5h3.6543v-3.916H23.12988v3.916Zm-14.08887-5.418H40.87305v-3.916H23.12988Zm12.19629-5.41651h3.40625c.168-3.36963,2.14746-6.42724,6.03125-9.3247a18.54167,18.54167,0,0,0,5.97266-12.55127A9.05685,9.05685,0,0,1,46.2002,9.56152C39.01306.91589,24.9038.77263,17.8125,9.57178a9.06,9.06,0,0,1-4.57129,13.418,18.67936,18.67936,0,0,0,7.502,13.82617A11.01123,11.01123,0,0,1,25.251,44.86279h3.42578V16.91357H24.19043l1.49023,1.49073a.75006.75006,0,0,1-1.06057,1.06051c-.008-.00961-2.77117-2.76938-2.77732-2.7778l-.001-.00146-.00293-.00293h0a.75291.75291,0,0,1-.00684-1.03125l.001-.00049c.00184-.01139,2.77873-2.77439,2.78708-2.78856a.75006.75006,0,0,1,1.06054,1.06056l-1.4902,1.49069h5.23633a.7502.7502,0,0,1,.75.75V44.86279h3.64941V16.16357a.7502.7502,0,0,1,.75-.75H39.8125l-1.49023-1.49072a.75006.75006,0,0,1,1.06057-1.06051c.02584.0344,2.763,2.75669,2.78708,2.78805v.00049l.001.00049a.75292.75292,0,0,1-.00684,1.03125h0c-.00451.00394.01055-.00147-.00293.00293l-.001.00146-.002.00147c-.00172.0061-2.77156,2.77046-2.77539,2.77637a.75006.75006,0,0,1-1.06051-1.06058l1.4902-1.4907H35.32617ZM51.7334,21.728a7.57183,7.57183,0,0,0,9.51651-7.24328C61.27673,7.3426,51.9978,4.23565,47.749,9.96743A7.54416,7.54416,0,0,0,51.7334,21.728ZM10.26562,6.96973A7.52351,7.52351,0,0,0,2.75,14.48486c.41361,9.938,14.579,9.94831,15.03029.03948A7.5628,7.5628,0,0,0,10.26562,6.96973ZM13.49414,18.46a.74671.74671,0,0,1-.53027-.21973l-2.7002-2.6997-2.69922,2.6997a.74992.74992,0,1,1-1.06054-1.06054L9.20312,14.48,6.50391,11.78027a.74992.74992,0,0,1,1.06054-1.06054l2.69922,2.6997,2.7002-2.6997a.74992.74992,0,0,1,1.06054,1.06054L11.3252,14.48l2.69921,2.69971A.75494.75494,0,0,1,13.49414,18.46Zm39.40234-1.11133a.79029.79029,0,0,1-.5317-.22117c-.1342-.13758-2.53047-2.52527-2.60245-2.60558A.75051.75051,0,0,1,50.86082,13.502c.06075.06074,2.03566,2.03613,2.03566,2.03613l3.7129-3.71289a.75006.75006,0,0,1,1.06051,1.06057l-4.24313,4.24314A.74949.74949,0,0,1,52.89648,17.34863Z"/>
</g>
</svg>