<svg viewBox="-2.3513540540540543 2.042 104.5945945945946 99.09" version="1.1" xmlns="http://www.w3.org/2000/svg" style="max-height: 500px" width="104.5945945945946" height="99.09">
 <path d="m63.84 51.891c6.293-0.011719 12.258-2.8047 16.293-7.6289 4.0391-4.8242 5.7344-11.188 4.6328-17.383-1.0977-6.1953-4.8828-11.586-10.332-14.727-5.4531-3.1406-12.016-3.7109-17.926-1.5547-5.9102 2.1562-10.562 6.8164-12.711 12.73-2.1523 5.9141-1.5742 12.473 1.5742 17.922 1.8633 3.2461 4.5547 5.9414 7.7969 7.8125 3.2461 1.8672 6.9297 2.8438 10.672 2.8281zm-9.7891-38.18c4.4766-2.5898 9.8008-3.2891 14.797-1.9531 4.9961 1.3359 9.2539 4.6055 11.84 9.082 2.5898 4.4766 3.293 9.8008 1.9531 14.797-1.3359 4.9961-4.6016 9.2539-9.082 11.844-4.4766 2.5859-9.8008 3.2891-14.797 1.9531-4.9961-1.3398-9.2539-4.6055-11.84-9.082-2.582-4.4805-3.2773-9.8008-1.9414-14.797 1.3359-4.9922 4.5977-9.25 9.0703-11.844zm39.84 57.898-11.23-17.219 1.4883-0.85938c0.42969-0.25 0.48047-1 0.12109-1.6016-0.35938-0.60156-1-0.94141-1.4414-0.69141l-1.6211 0.92969-1.2891-2 0.003906 0.003906c6.9727-5.7344 10.375-14.742 8.9336-23.652-1.4414-8.9102-7.5078-16.387-15.934-19.629-8.4258-3.2383-17.941-1.7617-24.984 3.8867-7.043 5.6484-10.551 14.613-9.2188 23.543-0.99219-0.039062-1.9844 0.14453-2.8984 0.53125v-6c0-1.6602-1.3438-3-3-3h-7.5586c-0.33984-0.003906-0.65234 0.1875-0.80078 0.49219-0.15234 0.30469-0.11719 0.66797 0.089843 0.9375 0.92188 1.293 1.1758 2.9453 0.67969 4.457-0.49219 1.5078-1.6719 2.6914-3.1797 3.1914-1.5078 0.5-3.1641 0.25-4.4609-0.66406-1.2969-0.91797-2.0781-2.3984-2.1094-3.9844 0-1.082 0.35156-2.1367 1-3 0.19922-0.27344 0.23047-0.63672 0.078125-0.94141-0.15234-0.30078-0.46094-0.49219-0.79688-0.48828h-7.4922c-1.6562 0-3 1.3398-3 3v53.301-0.003906c0.007813 1.6836 1.3672 3.0469 3.0508 3.0508h6c-0.90234 2.1133-0.68359 4.5391 0.58203 6.457s3.4102 3.0703 5.707 3.0703 4.4414-1.1523 5.707-3.0703c1.2695-1.918 1.4883-4.3438 0.58203-6.457h8.1133c0.066406 0.003906 0.13281 0.003906 0.19922 0h26.238c1.6445-0.03125 2.9688-1.3555 3-3l0.10156-6c0.85547 0.37109 1.7773 0.5625 2.7109 0.5625 2.0547 0 4-0.92188 5.3008-2.5117 1.3008-1.5938 1.8164-3.6836 1.4062-5.6992-0.41016-2.0117-1.707-3.7344-3.5273-4.6875-1.8203-0.95703-3.9727-1.0391-5.8633-0.23438v-7.6875c2.7656-0.085937 5.4961-0.625 8.082-1.6016l1.0781 2.1211-1.6211 0.94141c-0.42969 0.23828-0.48047 1-0.10938 1.5898 0.37109 0.58984 1 0.94141 1.4297 0.69922l1.5-0.85938 9.2891 18.328h0.003907c0.92188 1.8203 2.7812 2.9766 4.8203 3 0.93359-0.007812 1.8516-0.25781 2.6602-0.73047l0.32812-0.19922c1.2773-0.73828 2.1953-1.9648 2.5391-3.4023 0.34375-1.4336 0.078125-2.9453-0.72656-4.1797zm-41.891-61.43c5.4141-3.125 11.852-3.9727 17.895-2.3555 6.0391 1.6172 11.191 5.5703 14.316 10.984 3.1289 5.418 3.9766 11.852 2.3555 17.895-1.6172 6.0391-5.5703 11.191-10.984 14.316-5.418 3.1289-11.852 3.9766-17.895 2.3555-6.0391-1.6172-11.191-5.5703-14.316-10.984-3.1602-5.4102-4.0273-11.855-2.4062-17.906s5.5938-11.199 11.035-14.305zm3.6289 44.422 0.17969 0.070313h-0.19922c0.007813-0.027344 0.011719-0.050781 0.019531-0.070313zm-12.629 0.070313h-7.1797v-7.2227c2.6523 1.1406 5.7383 0.47656 7.6914-1.6484 0.32812 0.44922 0.67969 0.87891 1 1.3008-2.0234 1.9648-2.6211 4.9766-1.5117 7.5703zm-34.762-27h6c-0.90234 2.1094-0.68359 4.5352 0.58203 6.4531 1.2656 1.918 3.4102 3.0742 5.7109 3.0742 2.2969 0 4.4414-1.1562 5.707-3.0742s1.4844-4.3438 0.58203-6.4531h6c0.65625 0.039063 1.1719 0.57812 1.1797 1.2383v7.5117c0 0.33594 0.1875 0.64453 0.48828 0.79688 0.30469 0.15234 0.66797 0.12109 0.94141-0.078125 1.0234-0.78516 2.3086-1.1406 3.5898-1 0.55469 2.5039 1.4922 4.9102 2.7812 7.1289 0.19922 0.35156 0.42188 0.67969 0.62891 1-1.6875 2.1758-4.8164 2.5781-7 0.90234-0.27344-0.21094-0.64063-0.24219-0.94531-0.085937s-0.49219 0.47266-0.48438 0.8125v8.7695l-8.7383 0.003906c-0.33984-0.003906-0.65234 0.1875-0.80078 0.49219-0.15234 0.30469-0.11719 0.66797 0.089843 0.9375 0.92188 1.293 1.1758 2.9453 0.67969 4.4531-0.49219 1.5117-1.6719 2.6953-3.1797 3.1953-1.5078 0.5-3.1641 0.25-4.4609-0.66406-1.2969-0.91797-2.0781-2.3984-2.1094-3.9844 0-1.082 0.35156-2.1367 1-3 0.19922-0.27734 0.23047-0.63672 0.078125-0.94141-0.15234-0.30078-0.46094-0.49219-0.79688-0.48828h-8.7617v-25.762c0-0.33594 0.13281-0.65625 0.375-0.89062 0.23828-0.23438 0.55859-0.36328 0.89453-0.35938zm16.312 57.227c0.92188 1.293 1.1758 2.9492 0.67969 4.457-0.49219 1.5117-1.6719 2.6953-3.1797 3.1953-1.5078 0.49609-3.1641 0.25-4.4609-0.66797-1.2969-0.91797-2.0781-2.3945-2.1094-3.9844 0-1.082 0.35156-2.1328 1-3 0.19922-0.27344 0.23047-0.63281 0.078125-0.9375-0.15234-0.30469-0.46094-0.49219-0.79688-0.49219h-7.4922c-0.33594 0.003906-0.66016-0.12891-0.89844-0.36328-0.23828-0.23828-0.37109-0.55859-0.37109-0.89453v-25.75h7.2109c-0.90234 2.1133-0.68359 4.5391 0.58203 6.4531 1.2656 1.918 3.4102 3.0742 5.707 3.0742s4.4414-1.1562 5.707-3.0742c1.2656-1.9141 1.4844-4.3398 0.58203-6.4531h7.2109v8.7617-0.003906c0 0.33984 0.1875 0.64844 0.48828 0.80078 0.30469 0.15234 0.66797 0.12109 0.94141-0.078125 0.86719-0.65234 1.918-1 3-1 1.5898 0.03125 3.0664 0.8125 3.9844 2.1094 0.91797 1.2969 1.1641 2.9492 0.66406 4.457-0.49609 1.5078-1.6836 2.6914-3.1914 3.1836-1.5078 0.49219-3.1641 0.24219-4.457-0.67969-0.26563-0.21484-0.625-0.25391-0.93359-0.10547-0.30469 0.14453-0.49609 0.45312-0.49609 0.79297l-0.14844 8.7891h-8.5898c-0.33984 0-0.65234 0.19141-0.80078 0.49609-0.15234 0.30469-0.11719 0.66797 0.089843 0.9375zm42.75-20c1.5859 0.03125 3.0664 0.81641 3.9844 2.1133 0.91797 1.293 1.1641 2.9492 0.66406 4.457-0.49609 1.5078-1.6836 2.6875-3.1914 3.1836-1.5117 0.49219-3.1641 0.23828-4.457-0.68359-0.26562-0.21094-0.62891-0.25-0.93359-0.10547-0.30469 0.14844-0.5 0.45703-0.49609 0.79688l-0.12891 7.5117h-0.003907c-0.007812 0.68359-0.5625 1.2344-1.25 1.2383h-25.816l0.12109-7.1914h-0.003907c0.85547 0.37109 1.7773 0.5625 2.7109 0.5625 2.0547 0 4.0039-0.92188 5.3047-2.5117 1.3008-1.5938 1.8164-3.6836 1.4062-5.6992-0.41406-2.0117-1.707-3.7344-3.5273-4.6875-1.8203-0.95703-3.9727-1.0391-5.8633-0.23437v-7.1875h8.7617-0.003906c0.35156 0.003906 0.67188-0.19141 0.82422-0.50391 0.15625-0.3125 0.11328-0.68359-0.10156-0.95703-0.64844-0.86719-1-1.918-1-3-0.003906-1.3359 0.53125-2.6172 1.4805-3.5586 2.3438 2.3789 5.1367 4.2695 8.2188 5.5586-0.16016 0.37891-0.35938 0.73828-0.60156 1.0703-0.20703 0.26953-0.24219 0.63672-0.089844 0.94141 0.15234 0.30078 0.46094 0.49609 0.80078 0.5h8.7617v8.7617-0.003907c0 0.33984 0.19141 0.65234 0.49609 0.80469 0.30469 0.15234 0.67187 0.12109 0.94141-0.085938 0.85547-0.67188 1.9062-1.0469 2.9922-1.0664zm7.0586-11.27c0.71875-0.32812 1.4297-0.67969 2.1289-1.0781 0.69922-0.39844 1.3594-0.83984 2-1.2891l1.1719 1.7891-4.3281 2.5zm18.52 21.742c-0.21094 0.96484-0.82422 1.7891-1.6875 2.2695l-0.33984 0.19922c-0.84766 0.50391-1.8711 0.625-2.8125 0.33203-0.94922-0.26953-1.7422-0.92969-2.168-1.8203l-9.3398-18.422 4.5781-2.6484 11.281 17.301v-0.003906c0.55859 0.81641 0.73828 1.8359 0.48828 2.793zm-38-36.629v-0.003907c0.51953 0.003907 1.0352-0.078125 1.5312-0.23828v5.0781c0 0.23828 0.09375 0.46875 0.26562 0.63281 0.16797 0.16797 0.39453 0.26172 0.63281 0.25781h19.5c0.49609 0 0.89453-0.39453 0.90234-0.89062v-6.5781c-0.003907-0.33984-0.19922-0.64844-0.50391-0.79688-0.30469-0.14844-0.66406-0.11719-0.9375 0.085937-0.94922 0.71484-2.2188 0.83203-3.2812 0.30078-1.0586-0.52734-1.7305-1.6133-1.7305-2.8008s0.67188-2.2695 1.7305-2.8008c1.0625-0.52734 2.332-0.41406 3.2812 0.30078 0.27344 0.20313 0.63281 0.23828 0.9375 0.089844 0.30469-0.15234 0.5-0.46094 0.50391-0.80078v-6.5078c-0.007813-0.49219-0.40625-0.89062-0.90234-0.89062h-5.1094c0.49219-1.5 0.23438-3.1406-0.69141-4.418-0.92578-1.2773-2.4062-2.0352-3.9844-2.0352-1.5742 0-3.0586 0.75781-3.9844 2.0352-0.92187 1.2773-1.1797 2.918-0.6875 4.418h-5.0703c-0.23828-0.003907-0.46875 0.089843-0.63672 0.25781s-0.26562 0.39453-0.26562 0.63281v5.0781c-1.3672-0.45313-2.8711-0.28125-4.1016 0.46875-1.2344 0.75-2.0781 2.0039-2.3047 3.4258-0.22656 1.4258 0.18359 2.8789 1.1211 3.9766 0.94141 1.0977 2.3125 1.7266 3.7578 1.7188zm0-8v-0.003907c0.68359 0 1.3477 0.22266 1.8906 0.63281 0.26953 0.20312 0.62891 0.23828 0.92969 0.089844 0.30859-0.14844 0.50391-0.46094 0.5-0.80078v-5.6602h5.6523c0.33594-0.003906 0.64453-0.19922 0.79688-0.5 0.14844-0.30469 0.11328-0.66797-0.089844-0.94141-0.60547-0.80469-0.78516-1.8516-0.48828-2.8125 0.30078-0.96094 1.043-1.7188 2-2.0391 0.95313-0.31641 2.0039-0.15625 2.8203 0.42969 0.81641 0.58984 1.3008 1.5352 1.3008 2.543 0 0.67969-0.22266 1.3438-0.64062 1.8789-0.20312 0.26953-0.23828 0.62891-0.09375 0.92969 0.14453 0.30469 0.44922 0.5 0.78125 0.51172h5.6406v4.1797c-0.49219-0.16016-1.0078-0.24219-1.5273-0.23828-2.6289 0.11719-4.6992 2.2812-4.6992 4.9141 0 2.6289 2.0703 4.7969 4.6992 4.9141 0.51953 0.003907 1.0352-0.078125 1.5273-0.23828v4.1797h-17.707v-5.7109c0-0.33984-0.19531-0.65234-0.5-0.80078-0.30469-0.15234-0.66406-0.11719-0.93359 0.089843-0.80078 0.61328-1.8477 0.80078-2.8125 0.50391-0.96484-0.29688-1.7266-1.0391-2.0508-1.9961-0.32031-0.95703-0.16016-2.0078 0.42969-2.8281 0.58984-0.81641 1.5352-1.3008 2.5469-1.2969z"/>
<text fill="#000000" font-family="Arbeit Regular, Helvetica, Arial-Unicode, Arial, Sans-serif" font-weight="bold" font-size="5.0" y="117.5" x="0.0">Created by Nurul Huda</text><text fill="#000000" font-family="Arbeit Regular, Helvetica, Arial-Unicode, Arial, Sans-serif" font-weight="bold" font-size="5.0" y="122.5" x="0.0">from Noun Project</text></svg>