<svg viewBox="-1.2702702702702706 1.8260000000000005 101.08108108108108 97.2" version="1.1" xmlns="http://www.w3.org/2000/svg" style="max-height: 500px" width="101.08108108108108" height="97.2">
 <path fill-rule="evenodd" d="m10.934 75.668h7.0352c1.6641 0 3.1719 1.2305 3.1719 2.8906v13.184c0 1.6602-1.5078 2.8906-3.1719 2.8906h-7.0352c-1.6641 0-3.1719-1.2305-3.1719-2.8906v-13.184c0.003906-1.6602 1.5078-2.8906 3.1719-2.8906zm62.754-52.285c-0.86328-0.91406 0.52734-2.2227 1.3906-1.3086l3.6875 3.918 7.3477-8.375c0.34766-0.39453 0.94922-0.4375 1.3438-0.089844 0.39844 0.34766 0.4375 0.94922 0.089844 1.3477l-8.0117 9.1328c-0.39062 0.46484-1.0508 0.47266-1.4414 0.058594zm3.4883-15.863c0.066407-0.011719 0.12891-0.03125 0.1875-0.054687 0.058594 0.003906 0.125-0.003906 0.19141-0.011719 0.79687-0.11719 1.5742-0.17188 2.3242-0.17188v0.003906c7.4453 0 13.832 5.2734 14.922 12.695 1.3398 9.1367-5.668 17.246-14.82 17.246-0.60547 0-1.1992-0.035156-1.8008-0.10547-0.33203-0.039063-0.66016 0.10156-0.86719 0.36328-0.45703 0.58984-0.089844 1.4492 0.64844 1.5352 0.67578 0.078125 1.3398 0.11719 2.0195 0.12109h0.023437c9.3203-0.011719 16.871-7.5703 16.871-16.895 0-9.5039-7.6289-16.871-16.996-16.871v0.003906c-0.86719 0-1.7383 0.0625-2.6016 0.1875-0.085938 0.011719-0.16797 0.035156-0.24219 0.0625-0.070312-0.003906-0.14453 0.003906-0.21875 0.015625-0.40234 0.078125-0.80469 0.16797-1.1992 0.27344-0.78906 0.21484-0.96094 1.2578-0.28516 1.7148 0.23047 0.15625 0.51562 0.20313 0.78516 0.12891 0.35156-0.097657 0.70312-0.17188 1.0586-0.24219zm-5.9062 2.5312c0.32422-0.23828 0.46484-0.64062 0.36328-1.0312-0.17969-0.64453-0.94141-0.91016-1.4844-0.51953-0.55078 0.39453-1.0703 0.81641-1.5703 1.2734-0.58203 0.53125-0.30078 1.5039 0.47266 1.6445 0.29688 0.054687 0.59766-0.035157 0.82031-0.23828 0.44531-0.40234 0.90625-0.77734 1.3984-1.1289zm-4.6484 5.4062c0.37891-0.75781-0.33594-1.5977-1.1484-1.3438-0.24609 0.082031-0.44141 0.24609-0.55859 0.48047-0.30859 0.60547-0.57422 1.2227-0.80859 1.8594-0.14844 0.41016 0 0.875 0.36328 1.1211 0.51953 0.34766 1.2227 0.12109 1.4336-0.46484 0.20703-0.57031 0.44531-1.1172 0.71875-1.6523zm-1.6211 6.9375c-0.015625-0.8125-0.96484-1.2422-1.582-0.71094-0.21484 0.1875-0.33203 0.44922-0.33203 0.73438 0.007812 0.67578 0.054687 1.3555 0.14062 2.0234 0.042969 0.33594 0.26172 0.61719 0.57031 0.75391 0.68359 0.29297 1.4258-0.26953 1.3242-1.0078-0.074219-0.59375-0.11328-1.1953-0.12109-1.793zm1.7617 6.9023c-0.22266-0.41016-0.70312-0.60547-1.1445-0.45703-0.5625 0.1875-0.82422 0.83594-0.54297 1.3594 0.31641 0.59375 0.67578 1.1758 1.0625 1.7266 0.49219 0.69531 1.5703 0.45703 1.7266-0.38672 0.042969-0.25391-0.011719-0.50391-0.16016-0.71484-0.33984-0.48828-0.66016-1-0.94141-1.5273zm4.7578 5.3086c-0.65625-0.44531-1.5391 0.050781-1.4961 0.84766 0.019531 0.30078 0.16797 0.5625 0.41406 0.73438 0.55859 0.38281 1.1367 0.73047 1.7383 1.043 0.73438 0.37891 1.5703-0.28516 1.3672-1.0859-0.070313-0.26562-0.24219-0.48047-0.48438-0.60938-0.53125-0.28516-1.043-0.58984-1.5391-0.92969zm-46.793 18.617-4.8281 16.891c-1.0469 3.6602-5.7773 4.668-8.2461 1.8398-1.0742-1.2266-1.4375-2.8008-1.0039-4.375l4.7852-17.352c-0.35156-0.30859-0.64844-0.66797-0.88672-1.082-0.5625-0.97656-0.77344-2.2148-0.58594-3.6875l0.86328-11.227-1.707 0.21484-2.0156 5.8789c-0.69922 2.0469-2.8398 3.2578-4.9375 2.6328-1.1484-0.33984-1.9766-0.94141-2.5391-1.957-0.48828-0.87891-0.64844-1.9727-0.33984-3.0078h-0.003906l2.4023-7.9805c0.44141-1.4688 1.5312-2.6523 3.082-2.9336l10.516-1.9141c0.097656-0.019531 0.19531-0.019531 0.29297-0.007812l9.6016 1.25c1.7109 0.22266 7.9414 4 8.0039 4l5.1797-3.4414c1.7969-1.1953 4.2344-0.84766 5.5195 0.91797 0.70703 0.97266 1 1.9492 0.82812 3.0938-0.14844 0.99219-0.71094 2.0156-1.6055 2.625l-6.7227 4.8398c-1.2461 0.89844-2.8633 1.2188-4.2578 0.44141l-6.0195-3.3711-0.66016 8.8516 7.1172 1.9141c2.043 0.55078 3.5117 2.3789 3.6133 4.4961v0.070312l0.21484 11.898c0.042969 2.3086-1.2031 4.4727-3.5234 5.0703-0.83984 0.21875-1.4531 0.32031-2.3086 0.17188-2.0352-0.35547-3.6484-2.0156-3.8945-4.1367l0.11328-9.0039zm-7.5781-2.0469-4.6602 16.91c-0.53906 1.9609 1.0898 3.8242 3.1133 3.5586 1.2266-0.16016 2.1172-0.85547 2.4609-2.0547l4.8203-16.863-5.4414-1.4609c-0.10156-0.027344-0.19922-0.058594-0.29297-0.089844zm-2.9883-18.793 1.7773-0.21094c0.52734 0.039063 0.92188 0.49609 0.88281 1.0234l-0.95312 12.398c0 0.019531-0.003907 0.039062-0.007813 0.054688-0.25391 1.8711 0.26562 3.2773 2.0781 3.7656l14.039 3.7695v0.003906c0.41016 0.10938 0.71094 0.48828 0.70703 0.93359l-0.12891 9.5469c0.054687 0.41016 0.17969 0.77734 0.375 1.1016 0.63281 1.0508 1.9062 1.5938 3.1484 1.2734 0.79688-0.20703 1.3281-0.4375 1.8125-1.1445 0.39453-0.58203 0.59766-1.332 0.58203-2.1289l-0.21484-11.906c-0.042968-1.2773-0.97656-2.4102-2.1992-2.7383l-7.8633-2.1133c-0.44531-0.10938-0.76172-0.52734-0.72656-1l0.83203-11.137c0.050781-0.69141 0.80469-1.1055 1.418-0.76172l7.3281 4.1016c0.71094 0.39844 1.5664 0.14453 2.2109-0.32031l6.7227-4.8398c1.6484-1.2266 0.67969-3.5938-0.96484-3.8594-0.53516-0.085937-1.1133 0.03125-1.6055 0.35938l-5.1289 3.418c-0.64844 0.42969-1.4688 0.44922-2.1367 0.050782-0.64453-0.38672-6.1602-3.5898-7.2188-3.7266l-9.4531-1.2305-10.371 1.8867c-0.81641 0.14844-1.3516 0.82422-1.5859 1.6055l-2.4023 7.9805h-0.003906c-0.53516 1.875 1.6211 3.2383 3.1328 2.4258 0.47656-0.25781 0.85937-0.69531 1.0508-1.2539l1.9922-5.8359c0.25391-0.74219 0.89062-1.2578 1.668-1.3438 0.26562-0.035156 0.66016-0.082031 1.207-0.14844zm11.613-21.316c3.8203-0.066406 6.9609 3 7 6.7812h0.003906c0 3.8906-3.0234 6.9453-6.7852 6.9883v0.003906c-6.2969 0-9.1992-7.3789-5.0547-11.672 1.2266-1.2695 2.9336-2.0703 4.8359-2.1016zm3.5781 3.3047c-3.1914-3.082-8.5117-0.75-8.4375 3.6641 0.023438 1.3711 0.60156 2.6055 1.5195 3.4922 0.96094 0.92969 2.1445 1.3945 3.5625 1.3945v0.003906c1.3672-0.027343 2.5938-0.60547 3.4766-1.5156 0.92969-0.96094 1.3945-2.1445 1.3945-3.5625h0.003906c-0.03125-1.3672-0.60547-2.5938-1.5195-3.4766zm47.113 38.496h7.0352c1.6211 0 3.1719 1.1211 3.1719 2.7383v36.289c0 1.6133-1.5469 2.7383-3.1719 2.7383h-7.0352c-1.6211 0-3.1719-1.1211-3.1719-2.7383v-36.289c0-1.6133 1.5508-2.7383 3.1719-2.7383zm7.0352 1.9141h-7.0352c-0.57422 0-1.2578 0.32812-1.2578 0.82422v36.289c0 0.49609 0.68359 0.82422 1.2578 0.82422h7.0352c0.57422 0 1.2578-0.32812 1.2578-0.82422l-0.003906-36.289c0-0.49609-0.68359-0.82422-1.2539-0.82422zm-28.879 7.0508h7.0352c1.6211 0 3.1719 1.1211 3.1719 2.7383v27.324c0 1.6172-1.5469 2.7383-3.1719 2.7383h-7.0352c-1.6211 0-3.1719-1.1211-3.1719-2.7383v-27.324c0-1.6133 1.5508-2.7383 3.1719-2.7383zm7.0352 1.9141h-7.0352c-0.57422 0-1.2578 0.32812-1.2578 0.82422v27.324c0 0.49609 0.68359 0.82422 1.2578 0.82422h7.0352c0.57422 0 1.2578-0.32812 1.2578-0.82422v-27.324c-0.003906-0.49609-0.6875-0.82422-1.2578-0.82422zm-28.879 6.4531c-1.6211 0-3.168 1.1211-3.168 2.7383v18.957c0 1.6172 1.5469 2.7383 3.168 2.7383h7.0352c1.6211 0 3.168-1.1211 3.168-2.7383v-18.957c0-1.6133-1.5469-2.7383-3.168-2.7383zm7.0352 1.9141h-7.0352c-0.57422 0-1.2578 0.32812-1.2578 0.82422v18.957c0 0.49609 0.68359 0.82422 1.2578 0.82422h7.0352c0.57422 0 1.2578-0.32812 1.2578-0.82422l-0.003906-18.957c0-0.49609-0.68359-0.82422-1.2539-0.82422zm-21.844 5.4688h-7.0352c-0.62109 0-1.2578 0.39453-1.2578 0.97656v13.184c0 0.58203 0.63672 0.97656 1.2578 0.97656h7.0352c0.62109 0 1.2578-0.39453 1.2578-0.97656v-13.184c0-0.58203-0.63672-0.97656-1.2578-0.97656z"/>
<text fill="#000000" font-family="Arbeit Regular, Helvetica, Arial-Unicode, Arial, Sans-serif" font-weight="bold" font-size="5.0" y="117.5" x="0.0">Created by Lulis Dian RP</text><text fill="#000000" font-family="Arbeit Regular, Helvetica, Arial-Unicode, Arial, Sans-serif" font-weight="bold" font-size="5.0" y="122.5" x="0.0">from Noun Project</text></svg>