<svg viewBox="-0.9999999999999991 3.4459999999999997 100 93.69" version="1.1" xmlns="http://www.w3.org/2000/svg" style="max-height: 500px" width="100" height="93.69">
 <path d="m8 7c-2.7539 0-5 2.2461-5 5v75.996c0 2.7539 2.2461 5 5 5h54c2.7539 0 5-2.2461 5-5v-23.973l2.418-1.1172c0.10547-0.050781 0.20312-0.11719 0.28516-0.19922l27-27c0.39062-0.39062 0.39062-1.0234 0-1.4141l-7-7c-0.38281-0.38672-1.0078-0.39453-1.4023-0.015625l-21.305 20.543v-25.824c0-0.26562-0.10547-0.51953-0.29297-0.70703l-14-14c-0.1875-0.1875-0.44141-0.29297-0.70703-0.29297zm0 2h43v10c0 2.1992 1.8008 4 4 4h10v26.754l-4.6953 4.5234c-0.10547 0.10156-0.1875 0.22656-0.23828 0.35938l-5 13c-0.32422 0.83984 0.53906 1.6445 1.3516 1.2656l8.582-3.9609v23.051c0 1.6797-1.3203 3-3 3h-54c-1.6797 0-3-1.3203-3-3v-75.996c0-1.6797 1.3203-3 3-3zm45 1.4141 10.586 10.586h-8.5859c-1.125 0-2-0.875-2-2zm-25.77 12.938-9.2422 11.094-5.2305-6.1016c-0.35937-0.41797-0.98828-0.46484-1.4062-0.10938-0.41797 0.35938-0.46875 0.99219-0.10937 1.4102l6 7c0.40234 0.46875 1.1328 0.46094 1.5273-0.015625l10-12c0.35156-0.42578 0.29688-1.0547-0.12891-1.4062-0.42188-0.35156-1.0547-0.29297-1.4062 0.12891zm8.7695 5.6445c-0.55078 0-1 0.44922-1 1 0 0.55078 0.44922 1 1 1h22c0.55078 0 1-0.44922 1-1 0-0.55078-0.44922-1-1-1zm52.984 0.40234 5.5977 5.5977-4.0039 4.0039-5.2891-6.043zm-5.1328 4.9492 5.3125 6.0703c-7.5781 7.5234-13.125 13.578-21.242 20.973l-5.543-6.3359zm-56.621 7.0078-9.2422 11.09-5.2305-6.1016c-0.35937-0.41797-0.98828-0.46875-1.4062-0.10938-0.41797 0.35938-0.46875 0.99219-0.10937 1.4102l6 7c0.40234 0.46875 1.1328 0.46484 1.5273-0.011719l10-12c0.35547-0.42578 0.29688-1.0586-0.12891-1.4102-0.42578-0.35156-1.0547-0.29297-1.4062 0.12891zm8.7695 5.6406c-0.55078 0-1 0.44922-1 1 0 0.55078 0.44922 1 1 1h22c0.55078 0 1-0.44922 1-1 0-0.55078-0.44922-1-1-1zm25.34 9.9023 4.6914 5.3633-8.2109 3.7891zm-48.043 4.3867c-0.39062 0.39062-0.39062 1.0234 0 1.4141l5.293 5.293-5.293 5.293c-0.39062 0.39062-0.39062 1.0234 0 1.4141s1.0234 0.39062 1.4141 0l5.293-5.293 5.293 5.293c0.39062 0.39062 1.0234 0.39062 1.4141 0 0.39062-0.39062 0.39062-1.0234 0-1.4141l-5.293-5.293 5.293-5.293c0.39062-0.39062 0.39062-1.0234 0-1.4141-0.39063-0.39062-1.0234-0.39062-1.4141 0l-5.293 5.293-5.293-5.293c-0.39063-0.39062-1.0234-0.39062-1.4141 0zm22.707 5.707c-0.55078 0-1 0.44922-1 1 0 0.55078 0.44922 1 1 1h12c0.55078 0 1-0.44922 1-1 0-0.55078-0.44922-1-1-1z"/>
<text fill="#000000" font-family="Arbeit Regular, Helvetica, Arial-Unicode, Arial, Sans-serif" font-weight="bold" font-size="5.0" y="117.5" x="0.0">Created by Orin zuu</text><text fill="#000000" font-family="Arbeit Regular, Helvetica, Arial-Unicode, Arial, Sans-serif" font-weight="bold" font-size="5.0" y="122.5" x="0.0">from Noun Project</text></svg>