<svg viewBox="2.513513513513513 0.4759999999999991 96.48648648648648 98.82" version="1.1" xmlns="http://www.w3.org/2000/svg" style="max-height: 500px" width="96.48648648648648" height="98.82">
 <path fill-rule="evenodd" d="m55.457 51.758c2.4023 1.0859 4.4883 2.7578 6.0781 4.8281 2.043 2.6641 3.2617 5.9922 3.2617 9.5859v1.3008h18.902v-27.977h-7.5703l-9.5195 5.8281c-0.64062 0.39062-1.4766 0.1875-1.8711-0.45312-0.13672-0.22266-0.19922-0.46875-0.19922-0.70703h-0.003906v-4.668h-3.3477c-1.0117 0-1.9258-0.41016-2.5898-1.0742-0.66406-0.66406-1.0742-1.5781-1.0742-2.5898v-8.4102h-15.043v0.78906c0 1.0117-0.41016 1.9258-1.0742 2.5898-0.66406 0.66406-1.5781 1.0742-2.5898 1.0742h-3.3477v4.668c0 0.75391-0.60938 1.3633-1.3633 1.3633-0.29688 0-0.57031-0.09375-0.79297-0.25391l-9.4375-5.7773h-9.6016v35.598h18.902v-1.3008c0-3.5938 1.2188-6.9219 3.2617-9.5859 1.5898-2.0703 3.6758-3.7422 6.0781-4.8281-1.4336-1.5625-2.3125-3.6484-2.3125-5.9375 0-2.4258 0.98438-4.6211 2.5742-6.2109s3.7852-2.5742 6.2109-2.5742 4.6211 0.98438 6.2109 2.5742c1.5898 1.5898 2.5742 3.7852 2.5742 6.2109 0 2.2891-0.875 4.375-2.3125 5.9375zm3.9141 6.4805c1.6875 2.2031 2.6953 4.957 2.6953 7.9336v1.3008h-26.164v-1.3008c0-2.9766 1.0078-5.7305 2.6953-7.9336 1.625-2.1172 3.8789-3.7305 6.4766-4.5508 1.1758 0.58594 2.5039 0.91406 3.9102 0.91406s2.7305-0.32812 3.9102-0.91406c2.5977 0.82031 4.8516 2.4336 6.4766 4.5508zm-26.633-24.125-7.7773-4.7656c-0.22266-0.13672-0.46875-0.19922-0.70703-0.19922v-0.003907h-15.301c-0.25781 0-0.49219-0.10547-0.66016-0.27734-0.17188-0.17188-0.27734-0.40234-0.27734-0.66016v-19.543c0-0.25781 0.10547-0.49219 0.27734-0.66016 0.17188-0.17188 0.40234-0.27734 0.66016-0.27734h29.863c0.25781 0 0.49219 0.10547 0.66016 0.27734 0.17188 0.17188 0.27734 0.40234 0.27734 0.66016v19.547c0 0.25781-0.10547 0.49219-0.27734 0.66016-0.17187 0.17188-0.40234 0.27734-0.66016 0.27734h-4.7109c-0.75391 0-1.3633 0.60937-1.3633 1.3633v3.6016zm-21.191-2.2383h-2.5938c-1.0117 0-1.9258-0.41016-2.5898-1.0742-0.66406-0.66406-1.0742-1.5781-1.0742-2.5898v-19.547c0-1.0117 0.41016-1.9258 1.0742-2.5898 0.66406-0.66406 1.5781-1.0742 2.5898-1.0742h29.863c1.0117 0 1.9258 0.41016 2.5898 1.0742 0.66406 0.66406 1.0742 1.5781 1.0742 2.5898v16.031h15.043v-8.4102c0-1.0117 0.41016-1.9258 1.0742-2.5898 0.66406-0.66406 1.5781-1.0742 2.5898-1.0742h29.863c1.0117 0 1.9258 0.41016 2.5898 1.0742 0.66406 0.66406 1.0742 1.5781 1.0742 2.5898v19.547c0 1.0117-0.41016 1.9258-1.0742 2.5898s-1.5781 1.0742-2.5898 1.0742h-4.625v34.793c0 1.0508-0.42969 2.0078-1.1211 2.6992-0.69141 0.69141-1.6445 1.1211-2.6992 1.1211h-27.602l2.0898 7.7969h5.3008c1.2539 0 2.3906 0.51172 3.2148 1.3359 0.82422 0.82422 1.3359 1.9609 1.3359 3.2148v3.1836c0 0.75391-0.60937 1.3633-1.3633 1.3633h-33.188c-0.75391 0-1.3633-0.60938-1.3633-1.3633v-3.1836c0-1.2539 0.51172-2.3906 1.3359-3.2148 0.82422-0.82422 1.9609-1.3359 3.2148-1.3359h5.3008l2.0898-7.7969h-27.609c-1.0508 0-2.0078-0.42969-2.6992-1.1211-0.69141-0.69141-1.1211-1.6445-1.1211-2.6992zm55.715 9.8594v-3.6016c0-0.75391-0.60938-1.3633-1.3633-1.3633h-4.7109c-0.25781 0-0.49219-0.10547-0.66016-0.27734-0.17188-0.17188-0.27734-0.40234-0.27734-0.66016v-19.547c0-0.25781 0.10547-0.49219 0.27734-0.66016 0.17188-0.17188 0.40234-0.27734 0.66016-0.27734h29.863c0.25781 0 0.49219 0.10547 0.66016 0.27734 0.17187 0.17188 0.27734 0.40234 0.27734 0.66016v19.547c0 0.25781-0.10547 0.49219-0.27734 0.66016-0.17188 0.17187-0.40234 0.27734-0.66016 0.27734h-15.301c-0.29688 0-0.57031 0.09375-0.79297 0.25391zm14.406-20.73h-15.648c-0.75391 0-1.3633 0.60938-1.3633 1.3633 0 0.75391 0.60938 1.3633 1.3633 1.3633h15.648c0.75391 0 1.3633-0.60938 1.3633-1.3633 0-0.75391-0.60938-1.3633-1.3633-1.3633zm4.5469 7.3828c0.75391 0 1.3633 0.60938 1.3633 1.3633s-0.60938 1.3633-1.3633 1.3633h-20.191c-0.75391 0-1.3633-0.60938-1.3633-1.3633s0.60938-1.3633 1.3633-1.3633zm-31.941 57.52-2.0898-7.7969h-6.3984l-2.0898 7.7969zm29.422-15.703h-69.422v4.0898c0 0.30078 0.12109 0.57031 0.32031 0.76953s0.47266 0.32031 0.76953 0.32031h67.238c0.29688 0 0.57031-0.12109 0.76953-0.32031 0.19922-0.19922 0.32031-0.47266 0.32031-0.76953v-4.0898zm-30.43-28.66c1.0977 1.0977 1.7734 2.6094 1.7734 4.2812s-0.67969 3.1875-1.7734 4.2812c-1.0977 1.0977-2.6094 1.7734-4.2812 1.7734s-3.1875-0.67969-4.2812-1.7734c-1.0977-1.0977-1.7734-2.6094-1.7734-4.2812s0.67969-3.1875 1.7734-4.2812c1.0977-1.0977 2.6094-1.7734 4.2812-1.7734s3.1875 0.67969 4.2812 1.7734zm-24.754-21.949c0.16406-0.10156 0.30859-0.23828 0.42188-0.41406 0.41016-0.62891 0.23047-1.4727-0.39844-1.8789l-7.7266-5.0156c-0.23047-0.17578-0.51953-0.28125-0.83203-0.28125-0.75391 0-1.3633 0.60938-1.3633 1.3633v10.148h0.003907c0 0.25391 0.070312 0.51172 0.21875 0.73828 0.41016 0.62891 1.25 0.80859 1.8789 0.39844zm-7.1719 1.4141 3.957-2.5664-3.957-2.5664v5.1367zm41.055 67.625h-26.816c-0.5 0-0.95312 0.20313-1.2852 0.53516s-0.53516 0.78516-0.53516 1.2852v1.8203h30.461v-1.8203c0-0.5-0.20312-0.95312-0.53516-1.2852-0.33203-0.33203-0.78516-0.53516-1.2852-0.53516z"/>
<text fill="#000000" font-family="Arbeit Regular, Helvetica, Arial-Unicode, Arial, Sans-serif" font-weight="bold" font-size="5.0" y="117.5" x="0.0">Created by Xin Corleone</text><text fill="#000000" font-family="Arbeit Regular, Helvetica, Arial-Unicode, Arial, Sans-serif" font-weight="bold" font-size="5.0" y="122.5" x="0.0">from Noun Project</text></svg>