<svg xmlns="http://www.w3.org/2000/svg" version="1.1" viewBox="-5.0 -10.0 110.0 135.0">
 <path d="m50 35.246c6.7578 0 12.258-5.5 12.258-12.258 0-6.7578-5.5-12.258-12.258-12.258s-12.258 5.5-12.258 12.258c0 6.7578 5.5 12.258 12.258 12.258zm-6.1016-3.8242c0.77344-2.7109 3.2422-4.6367 6.1016-4.6367s5.3281 1.9258 6.1016 4.6367c-1.7188 1.2461-3.8242 1.9922-6.1016 1.9922s-4.3828-0.74609-6.1016-1.9922zm6.1016-18.855c5.7461 0 10.422 4.6758 10.422 10.422 0 2.7461-1.0781 5.2422-2.8203 7.1055-1.2305-3.0547-4.2148-5.1445-7.6016-5.1445-3.3906 0-6.375 2.0898-7.6016 5.1445-1.7422-1.8633-2.8203-4.3594-2.8203-7.1055 0-5.7461 4.6758-10.422 10.422-10.422zm0 12.375c2.4414 0 4.4297-1.9883 4.4297-4.4297 0-2.4414-1.9883-4.4297-4.4297-4.4297s-4.4297 1.9883-4.4297 4.4297c0 2.4414 1.9883 4.4297 4.4297 4.4297zm0-7.0273c1.4297 0 2.5977 1.1641 2.5977 2.5977 0 1.4297-1.1641 2.5977-2.5977 2.5977-1.4297 0-2.5977-1.1641-2.5977-2.5977 0-1.4336 1.168-2.5977 2.5977-2.5977zm32.68 41.629c-6.7578 0-12.258 5.5-12.258 12.258 0 6.7578 5.5 12.258 12.258 12.258 6.7578 0 12.258-5.5 12.258-12.258 0-6.7578-5.4961-12.258-12.258-12.258zm-6.0977 20.691c0.77344-2.7109 3.2422-4.6367 6.1016-4.6367s5.3281 1.9258 6.1016 4.6367c-1.7188 1.2461-3.8203 1.9883-6.1016 1.9883-2.2812 0.003906-4.3867-0.74219-6.1016-1.9883zm13.703-1.3242c-1.2305-3.0547-4.2148-5.1445-7.6016-5.1445-3.3906 0-6.375 2.0898-7.6016 5.1445-1.7422-1.8633-2.8203-4.3594-2.8203-7.1055 0-5.7461 4.6758-10.422 10.422-10.422s10.422 4.6758 10.422 10.422c0 2.7461-1.0781 5.2422-2.8203 7.1055zm-7.6055-14.016c-2.4414 0-4.4297 1.9883-4.4297 4.4297 0 2.4414 1.9883 4.4297 4.4297 4.4297 2.4414 0 4.4297-1.9883 4.4297-4.4297 0.003906-2.4414-1.9844-4.4297-4.4297-4.4297zm0 7.0273c-1.4297 0-2.5977-1.1641-2.5977-2.5977 0-1.4297 1.1641-2.5977 2.5977-2.5977 1.4297 0 2.5977 1.1641 2.5977 2.5977 0 1.4336-1.1641 2.5977-2.5977 2.5977zm-65.359-12.379c-6.7578 0-12.258 5.5-12.258 12.258 0 6.7578 5.5 12.258 12.258 12.258 6.7578 0 12.258-5.5 12.258-12.258 0-6.7578-5.5-12.258-12.258-12.258zm-6.1016 20.691c0.77344-2.7109 3.2422-4.6367 6.1016-4.6367 2.8594 0 5.3281 1.9258 6.1016 4.6367-1.7188 1.2461-3.8203 1.9883-6.1016 1.9883-2.2812 0.003906-4.3828-0.74219-6.1016-1.9883zm13.703-1.3242c-1.2305-3.0547-4.2148-5.1445-7.6016-5.1445-3.3906 0-6.375 2.0898-7.6016 5.1445-1.7422-1.8633-2.8203-4.3594-2.8203-7.1055 0-5.7461 4.6758-10.422 10.422-10.422 5.7461 0 10.422 4.6758 10.422 10.422 0 2.7461-1.0781 5.2422-2.8203 7.1055zm-7.6016-14.016c-2.4414 0-4.4297 1.9883-4.4297 4.4297 0 2.4414 1.9883 4.4297 4.4297 4.4297 2.4414 0 4.4297-1.9883 4.4297-4.4297 0-2.4414-1.9883-4.4297-4.4297-4.4297zm0 7.0273c-1.4297 0-2.5977-1.1641-2.5977-2.5977 0-1.4297 1.1641-2.5977 2.5977-2.5977 1.4297 0 2.5977 1.1641 2.5977 2.5977-0.003907 1.4336-1.168 2.5977-2.5977 2.5977zm47.828-45.23c0.24609-0.44141 0.80469-0.59766 1.25-0.35156 4.9844 2.793 9.2031 6.8359 12.207 11.699 2.7773 4.4961 4.4492 9.6055 4.8789 14.875l1.9219-2.3242c0.32422-0.39062 0.90234-0.44531 1.293-0.12109s0.44531 0.90234 0.12109 1.293l-3.4297 4.1484c-0.17969 0.21875-0.44531 0.33203-0.70703 0.33203-0.20703 0-0.41406-0.070313-0.58203-0.21094l-4.1484-3.4297c-0.39062-0.32422-0.44531-0.90234-0.12109-1.293s0.90234-0.44531 1.293-0.12109l2.5547 2.1133c-0.78906-10.539-6.8906-20.16-16.172-25.363-0.44922-0.24609-0.60547-0.80469-0.35937-1.2461zm-48.742 28.625c0.0625-5.9062 1.6758-11.699 4.6758-16.754 2.6094-4.3984 6.2031-8.1641 10.469-10.973l-2.957-0.57422c-0.49609-0.097656-0.82422-0.57812-0.72656-1.0742 0.097656-0.49609 0.57812-0.82422 1.0742-0.72656l5.2852 1.0234c0.49609 0.097657 0.82422 0.57812 0.72656 1.0742l-1.0234 5.2852c-0.097657 0.49609-0.57813 0.82422-1.0742 0.72656-0.49609-0.097657-0.82422-0.57812-0.72656-1.0742l0.63281-3.2617c-8.8828 5.7617-14.41 15.723-14.52 26.344-0.003907 0.50391-0.41406 0.90625-0.91797 0.90625h-0.007813c-0.50781 0-0.91406-0.41406-0.91016-0.92188zm53.93 25.953c0.30469 0.40625 0.22266 0.98047-0.18359 1.2852-5.8516 4.3906-12.816 6.7148-20.152 6.7148-6.5117 0-12.758-1.8398-18.176-5.3359l0.67578 2.9336c0.11328 0.49219-0.19531 0.98437-0.6875 1.1016-0.49219 0.11328-0.98438-0.19531-1.1016-0.6875l-1.207-5.2461c-0.11328-0.49219 0.19531-0.98438 0.6875-1.1016l5.2461-1.207c0.49219-0.11328 0.98438 0.19531 1.1016 0.6875 0.11328 0.49219-0.19531 0.98438-0.6875 1.1016l-3.2383 0.74609c5.168 3.3867 11.148 5.1719 17.387 5.1719 6.9336 0 13.523-2.1953 19.051-6.3477 0.40625-0.30078 0.98047-0.21875 1.2852 0.18359zm-35.824-17.648c0 0.75781 0.42969 1.4219 1.125 1.7305 0.25391 0.11328 0.51562 0.16797 0.77734 0.16797 0.45703 0 0.90234-0.16797 1.2617-0.49219l1.7891-1.6133c0.57031 2.3789 2.707 4.1523 5.2578 4.1523h15.004l2.6016 2.3477c0.35938 0.32422 0.80469 0.49219 1.2617 0.49219 0.26172 0 0.52344-0.054688 0.77734-0.16797 0.69531-0.30859 1.125-0.97266 1.125-1.7305v-13.605c0-2.7852-2.1133-5.082-4.8242-5.3789-0.25-2.7539-2.5664-4.9219-5.3867-4.9219l-15.359 0.003907c-2.9844 0-5.4102 2.4258-5.4102 5.4102zm26.18-6.3516v-5.8828c1.6797 0.29297 2.9648 1.7539 2.9648 3.5156v13.605c0 0.03125-0.007812 0.042969-0.035156 0.054688-0.03125 0.011719-0.039063 0.011719-0.0625-0.011719l-2.8633-2.582c-0.16797-0.15234-0.38672-0.23438-0.61328-0.23438l-15.363-0.003906c-1.793 0-3.2656-1.3281-3.5234-3.0508h14.086c2.9805 0 5.4102-2.4258 5.4102-5.4102zm-24.344-7.2539c0-1.9727 1.6055-3.5781 3.5781-3.5781h15.355c1.9727 0 3.5781 1.6055 3.5781 3.5781v7.2539c0 1.9727-1.6055 3.5781-3.5781 3.5781l-15.359-0.003906c-0.22656 0-0.44531 0.085938-0.61328 0.23438l-2.8633 2.582c-0.023437 0.023438-0.035156 0.023438-0.066406 0.011719s-0.035156-0.023437-0.035156-0.054687zm3.6211 6.0078c0-0.50781 0.41016-0.91797 0.91797-0.91797h8.4414c0.50781 0 0.91797 0.41016 0.91797 0.91797 0 0.50781-0.41016 0.91797-0.91797 0.91797h-8.4414c-0.50391 0-0.91797-0.41016-0.91797-0.91797zm0-4.7656c0-0.50781 0.41016-0.91797 0.91797-0.91797h13.43c0.50781 0 0.91797 0.41016 0.91797 0.91797 0 0.50781-0.41016 0.91797-0.91797 0.91797h-13.43c-0.50391 0-0.91797-0.41016-0.91797-0.91797z"/>
<text x="0.0" y="117.5" font-size="5.0" font-weight="bold" font-family="Arbeit Regular, Helvetica, Arial-Unicode, Arial, Sans-serif" fill="#000000">Created by Omah Icon</text><text x="0.0" y="122.5" font-size="5.0" font-weight="bold" font-family="Arbeit Regular, Helvetica, Arial-Unicode, Arial, Sans-serif" fill="#000000">from Noun Project</text></svg>