<svg xmlns="http://www.w3.org/2000/svg" version="1.1" viewBox="-5.0 -10.0 110.0 135.0">
 <path d="m48.965 69.395 0.25-1.4805c0.42578-2.5273 1.1094-4.8281 2.0938-7 0.98438-2.168 2.2656-4.1992 3.8867-6.1875 0.19531-0.24219 0.38672-0.48828 0.57422-0.73828-0.56641-0.0625-1.125-0.17188-1.668-0.31641-1.4414-0.38672-2.8086-1.0547-4.0117-1.9766-1.1562-0.88672-2.1641-2.0156-2.9414-3.3633h-0.003907c-0.77344-1.3398-1.2461-2.7773-1.4375-4.2305-0.19922-1.5078-0.09375-3.0234 0.29297-4.4648 0.38672-1.4414 1.0547-2.8086 1.9766-4.0117 0.89063-1.1602 2.0195-2.168 3.3594-2.9453 1.3438-0.77344 2.7773-1.2461 4.2305-1.4375 0.49219-0.066407 0.98828-0.097657 1.4805-0.097657-1.6289-2.793-3.8906-5.1719-6.5859-6.9414-3.2695-2.1445-7.1797-3.3906-11.387-3.3906-5.7383 0-10.934 2.3242-14.695 6.0859-3.7617 3.7617-6.0859 8.957-6.0859 14.695 0 2.4492 0.42188 4.793 1.1953 6.9688 0.80469 2.2578 1.9844 4.3359 3.4688 6.1562 1.6211 1.9883 2.9023 4.0195 3.8867 6.1875s1.668 4.4727 2.0938 7l0.25 1.4805h8.5273v-9.3984c-0.94141-0.21484-1.8281-0.64062-2.6055-1.25-1.1094-0.86719-1.9922-2.0977-2.5078-3.5742-0.24609-0.71094 0.12891-1.4844 0.83594-1.7305 0.71094-0.24609 1.4844 0.12891 1.7305 0.83594 0.33984 0.97656 0.91016 1.7773 1.6133 2.3281 0.66797 0.52344 1.4648 0.81641 2.2969 0.81641 0.83594 0 1.6289-0.29687 2.2969-0.81641 0.70312-0.55078 1.2734-1.3516 1.6133-2.3281 0.24609-0.71094 1.0234-1.082 1.7305-0.83594 0.71094 0.24609 1.082 1.0234 0.83594 1.7305-0.51563 1.4766-1.3984 2.707-2.5078 3.5742-0.77734 0.60938-1.6641 1.0391-2.6055 1.25v9.3984h8.5273zm32.324-33.785c3.1797 0 6.0547 1.2891 8.1406 3.3711 2.082 2.082 3.3711 4.9609 3.3711 8.1406 0 3.1797-1.2891 6.0547-3.3711 8.1406-2.0859 2.082-4.9609 3.3711-8.1406 3.3711-3.1797 0-6.0547-1.2891-8.1406-3.3711-2.082-2.082-3.3711-4.9609-3.3711-8.1406 0-3.1797 1.2891-6.0547 3.3711-8.1406 2.082-2.082 4.9609-3.3711 8.1406-3.3711zm6.2109 5.3008c-1.5898-1.5898-3.7852-2.5742-6.2109-2.5742-2.4258 0-4.6211 0.98437-6.2109 2.5742s-2.5742 3.7852-2.5742 6.2109c0 2.4258 0.98438 4.6211 2.5742 6.2109 1.5898 1.5898 3.7852 2.5742 6.2109 2.5742 2.4258 0 4.6211-0.98438 6.2109-2.5742 1.5898-1.5898 2.5742-3.7852 2.5742-6.2109 0-2.4258-0.98438-4.6211-2.5742-6.2109zm-10.93 7.1328 2.5312 2.5312c0.53125 0.53125 1.3945 0.53125 1.9297 0l4.9766-4.9766c0.53125-0.53125 0.53125-1.3945 0-1.9297-0.53125-0.53125-1.3945-0.53125-1.9297 0l-4.0117 4.0117-1.5664-1.5664c-0.53125-0.53125-1.3945-0.53125-1.9297 0-0.53125 0.53125-0.53125 1.3945 0 1.9297zm-17.793 6.375c-0.10938 0.17188-0.22266 0.33984-0.33594 0.50391-0.35938 0.52344-0.74219 1.0312-1.1406 1.5234-1.4688 1.8008-2.625 3.6367-3.5117 5.5938-0.88672 1.957-1.5039 4.0391-1.8906 6.3281l-0.21875 1.2852c0.41797 0.17188 0.79687 0.42578 1.1094 0.74219 0.61328 0.61328 0.99609 1.4648 0.99609 2.4023v3.6719c0 0.76172-0.25391 1.4648-0.67969 2.0352 0.42578 0.56641 0.67969 1.2734 0.67969 2.0352v3.6719c0 0.9375-0.38281 1.7852-0.99609 2.4023-0.61328 0.61328-1.4648 0.99609-2.4023 0.99609h-0.49219l-0.13281 1.5859c-0.13672 1.6445-0.89062 3.0977-2.0234 4.1367-1.1328 1.043-2.6406 1.6719-4.2891 1.6719h-8.7656c-1.6484 0-3.1562-0.62891-4.2891-1.6719-1.1328-1.043-1.8867-2.4922-2.0234-4.1367l-0.13281-1.5859h-0.49219c-0.9375 0-1.7852-0.38281-2.4023-0.99609-0.61328-0.61328-0.99609-1.4648-0.99609-2.4023v-3.6719c0-0.76172 0.25391-1.4648 0.67969-2.0352-0.42578-0.56641-0.67969-1.2734-0.67969-2.0352v-3.6719c0-0.9375 0.38281-1.7852 0.99609-2.4023 0.31641-0.31641 0.69141-0.57031 1.1094-0.74219l-0.21875-1.2852c-0.38672-2.2891-1.0039-4.3711-1.8906-6.3281-0.88672-1.957-2.0469-3.793-3.5117-5.5938-1.6797-2.0625-3.0195-4.4141-3.9258-6.9688-0.87891-2.4648-1.3555-5.1172-1.3555-7.875 0-6.4922 2.6328-12.367 6.8867-16.621 4.2539-4.2539 10.133-6.8867 16.621-6.8867 4.7539 0 9.1758 1.4102 12.875 3.8398 3.6289 2.3828 6.5625 5.7422 8.418 9.707 1.3164 0.39453 2.5625 1.0273 3.6719 1.8789 1.1602 0.89062 2.168 2.0195 2.9453 3.3594 0.77344 1.3438 1.2461 2.7773 1.4375 4.2305 0.19922 1.5078 0.09375 3.0234-0.29297 4.4609-0.23438 0.87109-0.57422 1.7227-1.0195 2.5352-0.27734 0.50391-0.58984 0.98828-0.93359 1.4453l8.3086 14.395c0.015625 0.023438 0.027344 0.050782 0.039062 0.074219l5.4961 9.5234h0.003906l2.3086 3.9961c0.019532 0.03125 0.035156 0.0625 0.050782 0.09375 0.56641 1.0352 0.67969 2.2031 0.39453 3.2617-0.29297 1.0898-1.0039 2.0703-2.0664 2.6836-1.0586 0.60938-2.2617 0.73438-3.3516 0.44531-1.0938-0.29297-2.0742-1.0039-2.6836-2.0586-0.015625-0.023438-0.027344-0.050782-0.039062-0.074219l-0.054688-0.097656-1.6289 0.94141v0.003906c-1.0586 0.61328-2.2617 0.73828-3.3555 0.44531-1.0938-0.29297-2.0742-1.0039-2.6836-2.0586-0.61328-1.0586-0.73828-2.2656-0.44531-3.3555 0.29297-1.0898 1.0039-2.0703 2.0664-2.6836l1.6289-0.9375-1.1211-1.9453-1.5195 0.87891c-0.066406 0.046875-0.13672 0.089844-0.21094 0.12109-1.0352 0.5625-2.1953 0.66797-3.2539 0.38672-1.043-0.28125-1.9883-0.94531-2.6016-1.9297-0.054687-0.074218-0.10156-0.15234-0.13672-0.23047-0.5625-1.0352-0.66797-2.1953-0.38672-3.2539 0.29297-1.0938 1.0039-2.0742 2.0586-2.6836 0.023438-0.015626 0.050782-0.027344 0.074219-0.039063l1.5586-0.89844-5.8438-10.121zm6.9453-12.957c0.14844 1.1445 0.066406 2.3008-0.22656 3.4062-0.18359 0.67969-0.44141 1.332-0.77344 1.9375-0.32422 0.59766-0.73047 1.1641-1.207 1.6875-0.42188 0.46484-0.46484 1.1367-0.14453 1.6445l8.7578 15.172c0.015625 0.023437 0.027344 0.046875 0.042969 0.070312l5.5 9.5234h-0.003906l2.3086 3.9961 0.03125 0.050781c0.20703 0.39062 0.24609 0.83203 0.13672 1.2383-0.11328 0.42188-0.38281 0.80078-0.78516 1.0312-0.40625 0.23438-0.87109 0.28125-1.293 0.16797s-0.79688-0.38672-1.0312-0.79297c-0.015625-0.023438-0.027344-0.046875-0.042968-0.070312l-0.73438-1.2695c-0.375-0.64844-1.2031-0.875-1.8555-0.5l-2.8125 1.6211v-0.003906c-0.40625 0.23438-0.86719 0.28125-1.2891 0.16797-0.42188-0.11328-0.79688-0.38672-1.0312-0.79297-0.23438-0.40234-0.28125-0.86719-0.16797-1.2891 0.11328-0.42188 0.38281-0.80078 0.78516-1.0312l2.8086-1.6211c0.64844-0.375 0.875-1.2031 0.5-1.8555l-0.003906-0.003907h0.003906l-2.4805-4.2969c-0.37891-0.64844-1.2109-0.87109-1.8594-0.49609-0.023438 0.015625-0.046875 0.027344-0.070313 0.042968l-2.7383 1.5781v-0.003907c-0.40625 0.23438-0.86719 0.28125-1.2891 0.16797-0.39453-0.10547-0.74609-0.34766-0.98437-0.70703-0.023438-0.050781-0.050782-0.10156-0.082032-0.14453-0.20312-0.39063-0.24219-0.82813-0.13281-1.2266 0.10547-0.39844 0.35547-0.75781 0.73047-0.99219 0.058594-0.03125 0.11719-0.066407 0.17188-0.10156l2.6953-1.5547c0.64844-0.375 0.875-1.2031 0.5-1.8555l-7.2539-12.566c-0.30078-0.52344-0.90234-0.77344-1.4648-0.65234v-0.003907c-0.69922 0.15234-1.3945 0.21875-2.0703 0.20313-0.69141-0.015626-1.3828-0.11719-2.0664-0.30078-1.1016-0.29688-2.1445-0.80469-3.0625-1.5078-0.88672-0.67969-1.6523-1.5352-2.2422-2.5547l-0.003906-0.003906h0.003906c-0.59375-1.0273-0.95312-2.1211-1.0977-3.2227-0.14844-1.1445-0.066407-2.3008 0.22656-3.4062 0.29688-1.1016 0.80469-2.1445 1.5078-3.0625 0.67578-0.88281 1.5352-1.6484 2.5625-2.2422 1.0234-0.59375 2.1172-0.95312 3.2188-1.0977 1.1445-0.14844 2.3008-0.066406 3.4062 0.22656 1.1016 0.29688 2.1445 0.80469 3.0625 1.5078 0.88281 0.67578 1.6484 1.5352 2.2422 2.5625s0.95312 2.1172 1.0977 3.2188zm-6.1367 1.8242c-0.089844 0.33203-0.24219 0.64453-0.45313 0.91797-0.19922 0.26172-0.46094 0.49219-0.76562 0.67188v0.003906c-0.30469 0.17578-0.63281 0.28516-0.96094 0.32812-0.33984 0.046875-0.6875 0.019531-1.0234-0.070312-0.33203-0.089844-0.64453-0.24219-0.91797-0.45312-0.26562-0.20312-0.49609-0.46094-0.66797-0.76172-0.17578-0.30859-0.28516-0.63672-0.32812-0.96875-0.046875-0.33984-0.019531-0.6875 0.070312-1.0234 0.089844-0.33203 0.24219-0.64453 0.45313-0.91797 0.19922-0.26172 0.46094-0.49219 0.76562-0.67188v-0.003906c0.30469-0.17578 0.63281-0.28516 0.96094-0.32813 0.33984-0.046874 0.6875-0.019531 1.0234 0.070313 0.33203 0.089844 0.64453 0.24219 0.91797 0.45312 0.25 0.19141 0.46484 0.42578 0.63672 0.70312 0.011719 0.019531 0.023437 0.042969 0.035156 0.0625 0.17969 0.30859 0.28516 0.63672 0.32812 0.96094 0.046875 0.33984 0.019532 0.6875-0.070312 1.0234zm2.7656-1.375c0.09375 0.70312 0.046876 1.4102-0.13281 2.0781-0.17969 0.67188-0.48828 1.3047-0.92188 1.8672-0.41406 0.54297-0.94141 1.0117-1.5664 1.3711v-0.003906l-0.003907 0.003906c-0.625 0.35938-1.293 0.58203-1.9688 0.67188-0.70312 0.09375-1.4102 0.046874-2.0781-0.13281-0.67188-0.17969-1.3047-0.48828-1.8672-0.92188-0.53906-0.41406-1.0078-0.94141-1.3711-1.5703-0.35938-0.625-0.58203-1.293-0.67188-1.9688-0.09375-0.70313-0.042969-1.4102 0.13281-2.0781 0.17969-0.67187 0.48828-1.3047 0.92188-1.8672 0.41406-0.54297 0.94141-1.0117 1.5664-1.3711v0.003907s0.003906-0.003907 0.003906-0.003907c0.625-0.35938 1.293-0.58203 1.9688-0.67188 0.70312-0.09375 1.4102-0.042968 2.0781 0.13281 0.67188 0.17969 1.3047 0.48828 1.8672 0.92188 0.51562 0.39453 0.96484 0.89062 1.3203 1.4844 0.019532 0.027343 0.035156 0.054687 0.050782 0.082031 0.35937 0.625 0.58203 1.2969 0.67187 1.9727zm6.5625-19.105-5.0938 2.9414c-0.64844 0.375-0.875 1.2031-0.5 1.8555 0.375 0.64844 1.2031 0.875 1.8555 0.5l5.0938-2.9414c0.64844-0.375 0.875-1.2031 0.5-1.8555-0.375-0.64844-1.2031-0.875-1.8555-0.5zm-13.398-12.398c0.375-0.64844 1.2031-0.875 1.8555-0.5 0.64844 0.375 0.875 1.2031 0.5 1.8555l-2.9414 5.0938c-0.375 0.64844-1.2031 0.875-1.8555 0.5-0.64844-0.375-0.875-1.2031-0.5-1.8555zm-17.805-4.0469c0-0.75391 0.60937-1.3633 1.3633-1.3633 0.75391 0 1.3633 0.60938 1.3633 1.3633v5.8828c0 0.75391-0.60938 1.3633-1.3633 1.3633-0.75391 0-1.3633-0.60938-1.3633-1.3633zm-17.434 5.4023c-0.37891-0.64844-0.15625-1.4805 0.49609-1.8594 0.64844-0.37891 1.4805-0.15625 1.8594 0.49609l2.9414 5.0938c0.37891 0.64844 0.15625 1.4805-0.49609 1.8594-0.64844 0.37891-1.4805 0.15625-1.8594-0.49609zm-12.398 13.395c-0.64844-0.375-0.875-1.2031-0.5-1.8555 0.375-0.64844 1.2031-0.875 1.8555-0.5l5.0938 2.9414c0.64844 0.375 0.875 1.2031 0.5 1.8555-0.375 0.64844-1.2031 0.875-1.8555 0.5zm39.172 63.805 0.11328-1.3633h-16.184l0.11328 1.3633c0.078125 0.94141 0.50781 1.7695 1.1484 2.3594 0.64062 0.58984 1.5039 0.94922 2.4492 0.94922h8.7656c0.94531 0 1.8047-0.35547 2.4492-0.94922 0.64453-0.58984 1.0703-1.418 1.1484-2.3594zm-19.297-9.1016c-0.18359 0-0.35156 0.074219-0.47266 0.19922-0.12109 0.12109-0.19922 0.28906-0.19922 0.47266v3.6719c0 0.18359 0.074219 0.35156 0.19922 0.47266 0.12109 0.12109 0.28906 0.19922 0.47266 0.19922h22.637c0.18359 0 0.35156-0.074219 0.47266-0.19922 0.12109-0.12109 0.19922-0.28906 0.19922-0.47266v-3.6719c0-0.18359-0.074219-0.35156-0.19922-0.47266-0.12109-0.12109-0.28906-0.19922-0.47266-0.19922zm22.637-7.7422h-22.637c-0.18359 0-0.35156 0.074218-0.47266 0.19922-0.12109 0.12109-0.19922 0.28906-0.19922 0.47266v3.6719c0 0.18359 0.074219 0.35156 0.19922 0.47266 0.12109 0.12109 0.28906 0.19922 0.47266 0.19922h22.637c0.18359 0 0.35156-0.074218 0.47266-0.19922 0.12109-0.12109 0.19922-0.28906 0.19922-0.47266v-3.6719c0-0.18359-0.074219-0.35156-0.19922-0.47266-0.12109-0.12109-0.28906-0.19922-0.47266-0.19922z" fill-rule="evenodd"/>
<text x="0.0" y="117.5" font-size="5.0" font-weight="bold" font-family="Arbeit Regular, Helvetica, Arial-Unicode, Arial, Sans-serif" fill="#000000">Created by Xin Corleone</text><text x="0.0" y="122.5" font-size="5.0" font-weight="bold" font-family="Arbeit Regular, Helvetica, Arial-Unicode, Arial, Sans-serif" fill="#000000">from Noun Project</text></svg>