<svg xmlns="http://www.w3.org/2000/svg" version="1.1" viewBox="-5.0 -10.0 110.0 135.0">
 <path d="m36.727 28.125c0-4.7422-3.8594-8.6016-8.6016-8.6016s-8.6016 3.8594-8.6016 8.6016 3.8594 8.6016 8.6016 8.6016 8.6016-3.8594 8.6016-8.6016zm-14.859 0c0-3.4492 2.8086-6.2578 6.2578-6.2578s6.2578 2.8086 6.2578 6.2578-2.8086 6.2578-6.2578 6.2578-6.2578-2.8086-6.2578-6.2578z"/>
 <path d="m22.676 51.562c0 0.64844 0.52344 1.1719 1.1719 1.1719h8.5547c0.64844 0 1.1719-0.52344 1.1719-1.1719v-7.0664c0.78516-0.26172 1.543-0.57422 2.2734-0.9375l4.9961 4.9922c0.45703 0.45703 1.1992 0.45703 1.6562 0l6.0508-6.0508c0.45703-0.45703 0.45703-1.1992 0-1.6562l-4.9961-4.9961c0.36328-0.73047 0.67969-1.4922 0.9375-2.2734h7.0664c0.64844 0 1.1719-0.52344 1.1719-1.1719v-8.5547c0-0.64844-0.52344-1.1719-1.1719-1.1719h-7.0664c-0.26172-0.78516-0.57422-1.543-0.9375-2.2734l4.9961-4.9961c0.45703-0.45703 0.45703-1.1992 0-1.6562l-6.0508-6.0508c-0.45703-0.45703-1.1992-0.45703-1.6562 0l-4.9961 4.9922c-0.73047-0.36328-1.4922-0.67969-2.2734-0.9375v-7.0664c0-0.64844-0.52344-1.1719-1.1719-1.1719h-8.5547c-0.64844 0-1.1719 0.52344-1.1719 1.1719v7.0664c-0.78516 0.26172-1.543 0.57422-2.2734 0.9375l-4.9961-4.9961c-0.45703-0.45703-1.1992-0.45703-1.6562 0l-6.0508 6.0508c-0.45703 0.45703-0.45703 1.1992 0 1.6562l4.9961 4.9961c-0.36719 0.73047-0.67969 1.4922-0.9375 2.2734l-7.0703 0.003906c-0.64844 0-1.1719 0.52344-1.1719 1.1719v8.5547c0 0.64844 0.52344 1.1719 1.1719 1.1719h7.0664c0.26172 0.78516 0.57422 1.543 0.9375 2.2734l-4.9922 4.9961c-0.45703 0.45703-0.45703 1.1992 0 1.6562l6.0508 6.0508c0.45703 0.45703 1.1992 0.45703 1.6562 0l4.9961-4.9961c0.73047 0.36719 1.4922 0.67969 2.2734 0.9375zm-1.9102-10.465c-0.46094-0.25781-1.0352-0.18359-1.4062 0.19141l-4.7773 4.7773-4.3945-4.3945 4.7773-4.7812c0.375-0.375 0.44922-0.94922 0.19141-1.4062-0.60156-1.0547-1.0703-2.1953-1.4023-3.3945-0.14062-0.50781-0.60156-0.85938-1.1289-0.85938h-6.7656v-6.2109h6.7617c0.52734 0 0.98828-0.35156 1.1289-0.85938 0.32812-1.1953 0.80078-2.3359 1.4023-3.3945 0.26172-0.45703 0.18359-1.0352-0.19141-1.4062l-4.7773-4.7773 4.3945-4.3945 4.7773 4.7773c0.37109 0.375 0.94922 0.44922 1.4062 0.19141 1.0586-0.60156 2.1992-1.0703 3.3945-1.4023 0.50781-0.14062 0.85938-0.60156 0.85938-1.1289l0.003906-6.7656h6.2109v6.7617c0 0.52734 0.35156 0.98828 0.85938 1.1289 1.1953 0.32812 2.3359 0.80078 3.3945 1.4023 0.45703 0.26172 1.0352 0.18359 1.4062-0.19141l4.7812-4.7773 4.3945 4.3945-4.7773 4.7773c-0.375 0.375-0.44922 0.94922-0.19141 1.4062 0.60156 1.0586 1.0703 2.1992 1.4023 3.3945 0.14062 0.50781 0.60156 0.85938 1.1289 0.85938h6.7617v6.2109h-6.7617c-0.52734 0-0.98828 0.35156-1.1289 0.85938-0.32812 1.1953-0.80078 2.3398-1.4023 3.3945-0.26172 0.45703-0.18359 1.0352 0.19141 1.4102l4.7812 4.7812-4.3945 4.3945-4.7812-4.7773c-0.375-0.375-0.95312-0.44922-1.4062-0.19141-1.0547 0.60156-2.1953 1.0703-3.3945 1.4023-0.50781 0.14062-0.85938 0.60156-0.85938 1.1289v6.7617h-6.2109v-6.7617c0-0.52734-0.35156-0.98828-0.85938-1.1289-1.1953-0.32812-2.3359-0.80078-3.3945-1.4023z"/>
 <path d="m69.102 23.566v-5.3398h3.8867c0.44141 0 0.84766-0.25 1.0469-0.64453 0.19922-0.39453 0.16016-0.86719-0.10156-1.2227l-9.1055-12.367c-0.44141-0.60156-1.4453-0.60156-1.8867 0l-9.1055 12.367c-0.26172 0.35547-0.30078 0.82812-0.10156 1.2227s0.60547 0.64453 1.0469 0.64453h3.8867v4.0664c-0.84375 0.015625-1.6914 0.035156-2.5195 0.10938-0.64453 0.054687-1.1211 0.625-1.0664 1.2695 0.054688 0.64453 0.63672 1.125 1.2695 1.0664 0.99219-0.085937 2.0117-0.12891 3.0234-0.12891 19.168 0 34.766 15.598 34.766 34.766s-15.598 34.766-34.766 34.766-34.766-15.598-34.766-34.766c0-1.0117 0.042969-2.0312 0.12891-3.0234 0.054688-0.64453-0.42188-1.2148-1.0664-1.2695-0.64844-0.0625-1.2148 0.42188-1.2695 1.0664-0.09375 1.0625-0.14062 2.1484-0.14062 3.2266 0 20.461 16.648 37.109 37.109 37.109 20.461 0 37.109-16.648 37.109-37.109 0-17.098-11.625-31.523-27.383-35.809zm-12.004-7.6836 6.7852-9.2188 6.7852 9.2188h-2.7422c-0.64844 0-1.1719 0.52344-1.1719 1.1719v5.9492c-1.8672-0.37891-3.7891-0.61328-5.7461-0.69922v-5.25c0-0.64844-0.52344-1.1719-1.1719-1.1719h-2.7422z"/>
 <path d="m30.859 59.375c0-1 0.050781-2.0078 0.15625-3.0039 0.066406-0.64453-0.39844-1.2188-1.043-1.2891-0.63281-0.050781-1.2188 0.40234-1.2891 1.043-0.11328 1.0742-0.16797 2.168-0.16797 3.2461 0 17.016 13.844 30.859 30.859 30.859s30.859-13.844 30.859-30.859-13.844-30.859-30.859-30.859c-1.082 0-2.1719 0.058593-3.2461 0.16797-0.64453 0.066406-1.1094 0.64453-1.043 1.2891 0.066406 0.64453 0.66016 1.1016 1.2891 1.043 0.99219-0.10547 2.0039-0.15625 3.0039-0.15625 15.723 0 28.516 12.793 28.516 28.516s-12.793 28.516-28.516 28.516-28.516-12.793-28.516-28.516z"/>
 <path d="m60.547 82.402v-21.855h14.422c0.64844 0 1.1719-0.52344 1.1719-1.1719s-0.52344-1.1719-1.1719-1.1719h-15.594c-0.64844 0-1.1719 0.52344-1.1719 1.1719v23.027c0 0.64844 0.52344 1.1719 1.1719 1.1719s1.1719-0.52344 1.1719-1.1719z"/>
 <path d="m77.105 18.227h3.8867v7.5312c0 0.64844 0.52344 1.1719 1.1719 1.1719 0.64844 0 1.1719-0.52344 1.1719-1.1719v-8.7031c0-0.64844-0.52344-1.1719-1.1719-1.1719h-2.7422l6.7852-9.2188 6.7852 9.2188h-2.7422c-0.64844 0-1.1719 0.52344-1.1719 1.1719v15.949c0 0.64844 0.52344 1.1719 1.1719 1.1719s1.1719-0.52344 1.1719-1.1719v-14.777h3.8867c0.44141 0 0.84766-0.25 1.0469-0.64453s0.16016-0.86719-0.10156-1.2227l-9.1055-12.367c-0.44141-0.60156-1.4453-0.60156-1.8867 0l-9.1055 12.367c-0.26172 0.35547-0.30078 0.82812-0.10156 1.2227 0.19922 0.39453 0.60547 0.64453 1.0469 0.64453z"/>
<text x="0.0" y="117.5" font-size="5.0" font-weight="bold" font-family="Arbeit Regular, Helvetica, Arial-Unicode, Arial, Sans-serif" fill="#000000">Created by Gung Yoga</text><text x="0.0" y="122.5" font-size="5.0" font-weight="bold" font-family="Arbeit Regular, Helvetica, Arial-Unicode, Arial, Sans-serif" fill="#000000">from Noun Project</text></svg>